<svg width="20" height="20" viewBox="0 0 20 20" fill="none" xmlns="http://www.w3.org/2000/svg">
<path d="M16.6667 9.99967H8.75004M15 12.4997L17.5 9.99967L15 7.49967M10.8334 5.83301V4.99967C10.8334 4.55765 10.6578 4.13372 10.3452 3.82116C10.0327 3.5086 9.60874 3.33301 9.16671 3.33301H5.00004C4.55801 3.33301 4.13409 3.5086 3.82153 3.82116C3.50897 4.13372 3.33337 4.55765 3.33337 4.99967V14.9997C3.33337 15.4417 3.50897 15.8656 3.82153 16.1782C4.13409 16.4907 4.55801 16.6663 5.00004 16.6663H9.16671C9.60874 16.6663 10.0327 16.4907 10.3452 16.1782C10.6578 15.8656 10.8334 15.4417 10.8334 14.9997V14.1663" stroke="#2C2C2C" stroke-linecap="round" stroke-linejoin="round"/>
</svg>
