<svg width="30" height="30" viewBox="0 0 30 30" fill="none" xmlns="http://www.w3.org/2000/svg">
<path d="M15.0749 25.5L19.3499 21.2625L15.0749 17.025L13.4999 18.6L15.1124 20.2125C14.4124 20.2375 13.7314 20.125 13.0694 19.875C12.4074 19.625 11.8134 19.2375 11.2874 18.7125C10.7874 18.2125 10.4059 17.6375 10.1429 16.9875C9.87987 16.3375 9.74887 15.6875 9.74987 15.0375C9.74987 14.6125 9.80637 14.1875 9.91937 13.7625C10.0324 13.3375 10.1884 12.925 10.3874 12.525L8.73737 10.875C8.31237 11.5 7.99987 12.1625 7.79987 12.8625C7.59987 13.5625 7.49988 14.275 7.49988 15C7.49988 15.95 7.68738 16.8875 8.06238 17.8125C8.43738 18.7375 8.98738 19.5625 9.71237 20.2875C10.4374 21.0125 11.2499 21.5565 12.1499 21.9195C13.0499 22.2825 13.9749 22.476 14.9249 22.5L13.4999 23.925L15.0749 25.5ZM21.2624 19.125C21.6874 18.5 21.9999 17.8375 22.1999 17.1375C22.3999 16.4375 22.4999 15.725 22.4999 15C22.4999 14.05 22.3184 13.106 21.9554 12.168C21.5924 11.23 21.0489 10.399 20.3249 9.675C22.4999 11.4 18.7819 8.4135 17.8679 8.0625C16.9539 7.7115 16.0229 7.5365 15.0749 7.5375L16.4999 6.075L14.9249 4.5L10.6499 8.7375L14.9249 12.975L16.4999 11.4L14.8499 9.75C15.5249 9.75 16.2124 9.8815 16.9124 10.1445C17.6124 10.4075 18.2124 10.7885 18.7124 11.2875C19.2124 11.7865 19.5939 12.3615 19.8569 13.0125C20.1199 13.6635 20.2509 14.3135 20.2499 14.9625C20.2499 15.3875 20.1939 15.8125 20.0819 16.2375C19.9699 16.6625 19.8134 17.075 19.6124 17.475L21.2624 19.125ZM14.9999 30C12.9249 30 10.9749 29.606 9.14987 28.818C7.32488 28.03 5.73738 26.9615 4.38738 25.6125C3.03738 24.2635 1.96888 22.676 1.18188 20.85C0.39488 19.024 0.000879828 17.074 -0.000120172 15C-0.00112017 12.926 0.39288 10.976 1.18188 9.15C1.97088 7.324 3.03938 5.7365 4.38738 4.3875C5.73538 3.0385 7.32288 1.97 9.14987 1.182C10.9769 0.394 12.9269 0 14.9999 0C17.0729 0 19.0229 0.394 20.8499 1.182C22.6769 1.97 24.2644 3.0385 25.6124 4.3875C26.9604 5.7365 28.0294 7.324 28.8194 9.15C29.6094 10.976 30.0029 12.926 29.9999 15C29.9969 17.074 29.6029 19.024 28.8179 20.85C28.0329 22.676 26.9644 24.2635 25.6124 25.6125C24.2604 26.9615 22.6729 28.0305 20.8499 28.8195C19.0269 29.6085 17.0769 30.002 14.9999 30ZM14.9999 27C18.3499 27 21.1874 25.8375 23.5124 23.5125C25.8374 21.1875 26.9999 18.35 26.9999 15C26.9999 11.65 25.8374 8.8125 23.5124 6.4875C21.1874 4.1625 18.3499 3 14.9999 3C11.6499 3 8.81237 4.1625 6.48738 6.4875C4.16238 8.8125 2.99988 11.65 2.99988 15C2.99988 18.35 4.16238 21.1875 6.48738 23.5125C8.81237 25.8375 11.6499 27 14.9999 27Z" fill="#2C2C2C"/>
</svg>
