<svg width="40" height="40" viewBox="0 0 40 40" fill="none" xmlns="http://www.w3.org/2000/svg">
<path d="M26.5825 24.3443C26.7738 25.1568 26.875 26.0041 26.875 26.875C26.875 32.9501 21.9501 37.875 15.875 37.875V29.0756M26.5825 24.3443C33.4281 19.342 37.875 11.2527 37.875 2.125C28.7477 2.12539 20.659 6.57241 15.6572 13.4179M26.5825 24.3443C23.4501 26.6332 19.8155 28.2757 15.875 29.0756M15.6572 13.4179C14.8443 13.2263 13.9965 13.125 13.125 13.125C7.04987 13.125 2.125 18.0499 2.125 24.125H10.9263M15.6572 13.4179C13.3686 16.5502 11.7262 20.1846 10.9263 24.125M15.875 29.0756C15.6854 29.1141 15.4951 29.1506 15.3041 29.1852C13.6415 27.8668 12.1348 26.3602 10.8165 24.6975C10.8511 24.506 10.8877 24.3151 10.9263 24.125M6.82183 28.508C4.80558 30.0121 3.5 32.4161 3.5 35.125C3.5 35.5593 3.53355 35.9857 3.5982 36.4018C4.01433 36.4665 4.44075 36.5 4.875 36.5C7.58389 36.5 9.98785 35.1944 11.4919 33.1782M28.25 14.5C28.25 16.0188 27.0188 17.25 25.5 17.25C23.9812 17.25 22.75 16.0188 22.75 14.5C22.75 12.9812 23.9812 11.75 25.5 11.75C27.0188 11.75 28.25 12.9812 28.25 14.5Z" stroke="#0F172A" stroke-width="2.5" stroke-linecap="round" stroke-linejoin="round"/>
</svg>
