<svg width="34" height="40" viewBox="0 0 34 40" fill="none" xmlns="http://www.w3.org/2000/svg">
<path d="M15.8075 5.03302C15.6889 5.4177 15.625 5.82639 15.625 6.25C15.625 7.00939 16.2406 7.625 17 7.625H25.25C26.0094 7.625 26.625 7.00939 26.625 6.25C26.625 5.82639 26.5611 5.4177 26.4425 5.03302M15.8075 5.03302C16.3267 3.34887 17.8954 2.125 19.75 2.125H22.5C24.3546 2.125 25.9233 3.34887 26.4425 5.03302M15.8075 5.03302C15.1188 5.07407 14.4322 5.12304 13.7478 5.17984C11.6742 5.35195 10.125 7.1176 10.125 9.1984V13.125M26.4425 5.03302C27.1313 5.07407 27.8178 5.12304 28.5022 5.17984C30.5758 5.35195 32.125 7.1176 32.125 9.1984V28.25C32.125 30.5282 30.2782 32.375 28 32.375H23.875M10.125 13.125H3.9375C2.79841 13.125 1.875 14.0484 1.875 15.1875V35.8125C1.875 36.9516 2.79841 37.875 3.9375 37.875H21.8125C22.9516 37.875 23.875 36.9516 23.875 35.8125V32.375M10.125 13.125H21.8125C22.9516 13.125 23.875 14.0484 23.875 15.1875V32.375M8.75 26.875L11.5 29.625L17 22.75" stroke="#0F172A" stroke-width="2.5" stroke-linecap="round" stroke-linejoin="round"/>
</svg>
