<svg width="44" height="45" viewBox="0 0 44 45" fill="none" xmlns="http://www.w3.org/2000/svg">
<path d="M11 13.1097V11.5C11 9.22183 12.8468 7.375 15.125 7.375H28.875C31.1532 7.375 33 9.22183 33 11.5V13.1097M11 13.1097C11.4301 12.9577 11.8929 12.875 12.375 12.875H31.625C32.1071 12.875 32.5699 12.9577 33 13.1097M11 13.1097C9.39786 13.676 8.25 15.2039 8.25 17V18.6097M33 13.1097C34.6021 13.676 35.75 15.2039 35.75 17V18.6097M35.75 18.6097C35.3199 18.4577 34.8571 18.375 34.375 18.375H9.625C9.14288 18.375 8.68007 18.4577 8.25 18.6097M35.75 18.6097C37.3521 19.176 38.5 20.7039 38.5 22.5V33.5C38.5 35.7782 36.6532 37.625 34.375 37.625H9.625C7.34683 37.625 5.5 35.7782 5.5 33.5V22.5C5.5 20.7039 6.64786 19.176 8.25 18.6097" stroke="#0F172A" stroke-width="2.5" stroke-linecap="round" stroke-linejoin="round"/>
</svg>
