<svg width="16" height="14" viewBox="0 0 16 14" fill="none" xmlns="http://www.w3.org/2000/svg">
    <path d="M6.60851 10.8279H1.35791" stroke="#4F4F4F" stroke-width="1.5" stroke-linecap="round" stroke-linejoin="round"/>
    <path d="M8.95044 2.75072H14.201" stroke="#4F4F4F" stroke-width="1.5" stroke-linecap="round" stroke-linejoin="round"/>
    <path fill-rule="evenodd" clip-rule="evenodd" d="M5.27198 2.70521C5.27198 1.6255 4.39018 0.75 3.30269 0.75C2.21521 0.75 1.3334 1.6255 1.3334 2.70521C1.3334 3.78492 2.21521 4.66042 3.30269 4.66042C4.39018 4.66042 5.27198 3.78492 5.27198 2.70521Z" stroke="#4F4F4F" stroke-width="1.5" stroke-linecap="round" stroke-linejoin="round"/>
    <path fill-rule="evenodd" clip-rule="evenodd" d="M14.6668 10.7951C14.6668 9.71534 13.7857 8.83984 12.6982 8.83984C11.61 8.83984 10.7282 9.71534 10.7282 10.7951C10.7282 11.8748 11.61 12.7503 12.6982 12.7503C13.7857 12.7503 14.6668 11.8748 14.6668 10.7951Z" stroke="#4F4F4F" stroke-width="1.5" stroke-linecap="round" stroke-linejoin="round"/>
</svg>
