<svg xmlns:xlink="http://www.w3.org/1999/xlink" xmlns="http://www.w3.org/2000/svg" version="1.0" preserveAspectRatio="xMidYMid meet" viewBox="25.500000000000004 141.749996598 309 80.99999805600001" zoomAndPan="magnify" style="max-height: 500px" width="309" height="80.99999805600001"><defs fill="#e9e9e9"><g/><clipPath id="3de4f01f92" fill="#e9e9e9"><path clip-rule="nonzero" d="M 27.625 160 L 95.875 160 L 95.875 210.515625 L 27.625 210.515625 Z M 27.625 160" fill="#e9e9e9"/></clipPath></defs><g fill-opacity="1" fill="#e9e9e9"><g transform="translate(83.320144, 216.477737)"><g><path d="M 48.140625 -19.296875 L 17.21875 -19.296875 C 17.21875 -16.296875 18.1875 -14.078125 20.125 -12.640625 C 22.0625 -11.203125 24.164062 -10.484375 26.4375 -10.484375 C 28.820312 -10.484375 30.707031 -10.800781 32.09375 -11.4375 C 33.476562 -12.070312 35.0625 -13.332031 36.84375 -15.21875 L 47.484375 -9.890625 C 43.046875 -2.460938 35.671875 1.25 25.359375 1.25 C 18.929688 1.25 13.414062 -0.953125 8.8125 -5.359375 C 4.207031 -9.765625 1.90625 -15.070312 1.90625 -21.28125 C 1.90625 -27.488281 4.207031 -32.8125 8.8125 -37.25 C 13.414062 -41.6875 18.929688 -43.90625 25.359375 -43.90625 C 32.117188 -43.90625 37.617188 -41.953125 41.859375 -38.046875 C 46.109375 -34.140625 48.234375 -28.550781 48.234375 -21.28125 C 48.234375 -20.289062 48.203125 -19.628906 48.140625 -19.296875 Z M 17.625 -27.4375 L 33.84375 -27.4375 C 33.507812 -29.65625 32.632812 -31.359375 31.21875 -32.546875 C 29.8125 -33.742188 28 -34.34375 25.78125 -34.34375 C 23.34375 -34.34375 21.398438 -33.703125 19.953125 -32.421875 C 18.515625 -31.148438 17.738281 -29.488281 17.625 -27.4375 Z M 17.625 -27.4375" fill="#e9e9e9"/></g></g></g><g fill-opacity="1" fill="#e9e9e9"><g transform="translate(128.546723, 216.477737)"><g><path d="M 7.890625 -5.28125 C 3.898438 -9.632812 1.90625 -14.96875 1.90625 -21.28125 C 1.90625 -27.601562 3.898438 -32.953125 7.890625 -37.328125 C 11.890625 -41.710938 16.96875 -43.90625 23.125 -43.90625 C 28.769531 -43.90625 33.425781 -42.128906 37.09375 -38.578125 L 37.09375 -71.515625 L 51.8125 -71.515625 L 51.8125 0 L 37.25 0 L 37.25 -4.828125 L 37.09375 -4.828125 C 33.425781 -0.773438 28.769531 1.25 23.125 1.25 C 16.96875 1.25 11.890625 -0.925781 7.890625 -5.28125 Z M 20.40625 -28.515625 C 18.5 -26.628906 17.546875 -24.21875 17.546875 -21.28125 C 17.546875 -18.34375 18.457031 -15.945312 20.28125 -14.09375 C 22.113281 -12.238281 24.53125 -11.3125 27.53125 -11.3125 C 30.40625 -11.3125 32.769531 -12.253906 34.625 -14.140625 C 36.488281 -16.023438 37.421875 -18.40625 37.421875 -21.28125 C 37.421875 -24.21875 36.460938 -26.628906 34.546875 -28.515625 C 32.640625 -30.398438 30.300781 -31.34375 27.53125 -31.34375 C 24.695312 -31.34375 22.320312 -30.398438 20.40625 -28.515625 Z M 20.40625 -28.515625" fill="#e9e9e9"/></g></g></g><g fill-opacity="1" fill="#e9e9e9"><g transform="translate(180.424486, 216.477737)"><g><path d="M 6.40625 -66.4375 C 8.125 -68.15625 10.171875 -69.015625 12.546875 -69.015625 C 14.929688 -69.015625 16.984375 -68.15625 18.703125 -66.4375 C 20.421875 -64.71875 21.28125 -62.664062 21.28125 -60.28125 C 21.28125 -57.90625 20.421875 -55.859375 18.703125 -54.140625 C 16.984375 -52.421875 14.929688 -51.5625 12.546875 -51.5625 C 10.171875 -51.5625 8.125 -52.421875 6.40625 -54.140625 C 4.6875 -55.859375 3.828125 -57.90625 3.828125 -60.28125 C 3.828125 -62.664062 4.6875 -64.71875 6.40625 -66.4375 Z M 4.984375 -42.65625 L 4.984375 0 L 19.703125 0 L 19.703125 -42.65625 Z M 4.984375 -42.65625" fill="#e9e9e9"/></g></g></g><g fill-opacity="1" fill="#e9e9e9"><g transform="translate(200.626023, 216.477737)"><g><path d="M 7.484375 -42.65625 L 7.484375 -58.546875 L 22.203125 -58.546875 L 22.203125 -42.65625 L 31.1875 -42.65625 L 31.1875 -31.4375 L 22.203125 -31.4375 L 22.203125 -17.875 C 22.203125 -13.9375 23.3125 -11.96875 25.53125 -11.96875 C 26.082031 -11.96875 26.660156 -12.078125 27.265625 -12.296875 C 27.878906 -12.523438 28.351562 -12.75 28.6875 -12.96875 L 29.1875 -13.3125 L 32.84375 -1.40625 C 29.6875 0.363281 26.082031 1.25 22.03125 1.25 C 19.257812 1.25 16.875 0.765625 14.875 -0.203125 C 12.882812 -1.171875 11.375 -2.472656 10.34375 -4.109375 C 9.320312 -5.742188 8.585938 -7.460938 8.140625 -9.265625 C 7.703125 -11.066406 7.484375 -12.992188 7.484375 -15.046875 L 7.484375 -31.4375 L 1.328125 -31.4375 L 1.328125 -42.65625 Z M 7.484375 -42.65625" fill="#e9e9e9"/></g></g></g><g fill-opacity="1" fill="#e9e9e9"><g transform="translate(230.310913, 217.874986)"><g><path d="M 8.03125 0 L 8.03125 -60.515625 L 9.921875 -60.515625 L 9.921875 -21.75 L 10.15625 -21.75 L 34.28125 -45.390625 L 37 -45.390625 L 17.109375 -25.828125 L 37.703125 0 L 35.21875 0 L 15.78125 -24.53125 L 9.921875 -18.796875 L 9.921875 0 Z M 8.03125 0" fill="#e9e9e9"/></g></g></g><g fill-opacity="1" fill="#e9e9e9"><g transform="translate(263.854291, 217.874986)"><g><path d="M 8.265625 0 L 8.265625 -45.390625 L 10.15625 -45.390625 L 10.15625 0 Z M 9.21875 -53.65625 C 8.707031 -53.65625 8.265625 -53.84375 7.890625 -54.21875 C 7.515625 -54.59375 7.328125 -55.035156 7.328125 -55.546875 C 7.328125 -56.054688 7.515625 -56.5 7.890625 -56.875 C 8.265625 -57.25 8.707031 -57.4375 9.21875 -57.4375 C 9.726562 -57.4375 10.171875 -57.25 10.546875 -56.875 C 10.921875 -56.5 11.109375 -56.054688 11.109375 -55.546875 C 11.109375 -55.035156 10.921875 -54.59375 10.546875 -54.21875 C 10.171875 -53.84375 9.726562 -53.65625 9.21875 -53.65625 Z M 9.21875 -53.65625" fill="#e9e9e9"/></g></g></g><g fill-opacity="1" fill="#e9e9e9"><g transform="translate(275.299964, 217.874986)"><g><path d="M 22.21875 -45.390625 L 22.21875 -43.5 L 12.765625 -43.5 L 12.765625 -9.578125 C 12.765625 -6.929688 13.613281 -4.847656 15.3125 -3.328125 C 17.019531 -1.816406 19.007812 -1.0625 21.28125 -1.0625 C 22.257812 -1.0625 23.28125 -1.257812 24.34375 -1.65625 L 24.9375 0.125 C 24.34375 0.332031 23.757812 0.5 23.1875 0.625 C 22.625 0.757812 21.988281 0.828125 21.28125 0.828125 C 18.476562 0.828125 16.039062 -0.101562 13.96875 -1.96875 C 11.90625 -3.84375 10.875 -6.378906 10.875 -9.578125 L 10.875 -43.5 L 4.25 -43.5 L 4.25 -45.390625 L 10.875 -45.390625 L 10.875 -56.25 L 12.765625 -56.25 L 12.765625 -45.390625 Z M 22.21875 -45.390625" fill="#e9e9e9"/></g></g></g><g fill-opacity="1" fill="#e9e9e9"><g transform="translate(297.262725, 217.874986)"><g><path d="M 35.21875 -35.8125 L 33.328125 -35.34375 C 31.472656 -41.25 27.457031 -44.203125 21.28125 -44.203125 C 17.65625 -44.203125 14.71875 -43.28125 12.46875 -41.4375 C 10.21875 -39.59375 9.09375 -37.164062 9.09375 -34.15625 C 9.09375 -29.3125 12.164062 -26.117188 18.3125 -24.578125 L 25.40625 -22.8125 C 28.738281 -21.976562 31.265625 -20.578125 32.984375 -18.609375 C 34.710938 -16.640625 35.578125 -14.257812 35.578125 -11.46875 C 35.578125 -7.757812 34.164062 -4.757812 31.34375 -2.46875 C 28.53125 -0.1875 24.898438 0.953125 20.453125 0.953125 C 16.410156 0.953125 13.109375 -0.03125 10.546875 -2 C 7.984375 -3.976562 6.320312 -6.78125 5.5625 -10.40625 L 7.453125 -10.875 C 8.804688 -4.257812 13.140625 -0.953125 20.453125 -0.953125 C 24.390625 -0.953125 27.578125 -1.914062 30.015625 -3.84375 C 32.460938 -5.769531 33.6875 -8.3125 33.6875 -11.46875 C 33.6875 -16.3125 30.769531 -19.460938 24.9375 -20.921875 L 17.84375 -22.6875 C 14.351562 -23.550781 11.707031 -24.96875 9.90625 -26.9375 C 8.101562 -28.914062 7.203125 -31.320312 7.203125 -34.15625 C 7.203125 -37.71875 8.507812 -40.597656 11.125 -42.796875 C 13.75 -44.992188 17.132812 -46.09375 21.28125 -46.09375 C 28.34375 -46.09375 32.988281 -42.664062 35.21875 -35.8125 Z M 35.21875 -35.8125" fill="#e9e9e9"/></g></g></g><path fill-rule="nonzero" fill-opacity="1" d="M 69.875 200.730469 C 69.738281 199.492188 64.039062 202.429688 62.453125 202.382812 C 62.492188 202.171875 62.863281 199.429688 62.679688 197.894531 C 62.628906 197.433594 62.953125 197.011719 63.40625 196.921875 C 65.765625 196.464844 67.496094 194.941406 67.496094 193.132812 C 67.496094 190.960938 64.996094 189.203125 61.910156 189.203125 C 58.824219 189.203125 56.320312 190.960938 56.320312 193.132812 C 56.320312 195.066406 58.300781 196.667969 60.910156 197 C 61.265625 197.046875 61.515625 197.355469 61.46875 197.710938 C 61.273438 199.125 61.222656 202.210938 61.234375 202.328125 C 60.984375 202.316406 56.894531 201.367188 54.945312 200.261719 C 54.226562 199.988281 53.96875 200.648438 54.328125 201.171875 C 54.789062 201.839844 57.046875 203.421875 62.023438 203.730469 C 66.621094 204.011719 69.96875 201.570312 69.875 200.730469" fill="#e9e9e9"/><path fill-rule="nonzero" fill-opacity="1" d="M 52.609375 192.171875 C 49.625 190.9375 45.898438 190.808594 43.21875 190.773438 C 42.117188 190.761719 42.167969 191.882812 43.089844 191.898438 C 43.480469 191.902344 46.105469 192.066406 46.898438 192.179688 C 48.496094 192.394531 50.519531 192.519531 52.015625 193.121094 C 52.421875 193.277344 52.890625 193.855469 53.332031 193.585938 C 54.148438 193.097656 53.066406 192.359375 52.609375 192.171875" fill="#e9e9e9"/><path fill-rule="nonzero" fill-opacity="1" d="M 48.667969 194.125 C 47.0625 194.058594 45.46875 194.277344 43.882812 194.496094 C 43.453125 194.550781 42.375 194.527344 42.453125 195.214844 C 42.519531 195.875 43.40625 195.667969 43.820312 195.621094 C 44.703125 195.527344 45.582031 195.417969 46.46875 195.339844 C 47.769531 195.230469 49.078125 195.203125 50.359375 195.46875 C 50.585938 195.519531 53.050781 196.0625 53.195312 195.25 C 53.320312 194.527344 50.144531 194.1875 48.667969 194.125" fill="#e9e9e9"/><path fill-rule="nonzero" fill-opacity="1" d="M 52.835938 196.769531 C 52.339844 196.4375 49.457031 197.332031 48.746094 197.523438 C 47.3125 197.902344 43.523438 199.710938 43.226562 200.027344 C 42.722656 200.570312 42.988281 201.132812 43.738281 201.046875 C 44.511719 200.960938 48.566406 198.714844 49.867188 198.457031 C 50.285156 198.375 54.003906 197.539062 52.835938 196.769531" fill="#e9e9e9"/><path fill-rule="nonzero" fill-opacity="1" d="M 69.5625 193.585938 C 70.011719 193.855469 70.46875 193.265625 70.878906 193.121094 C 74.222656 191.945312 79.191406 191.804688 79.585938 191.828125 C 80.875 191.914062 80.808594 190.605469 79.710938 190.667969 C 76.535156 190.667969 73.246094 190.890625 70.285156 192.171875 C 69.832031 192.367188 68.746094 193.097656 69.5625 193.585938" fill="#e9e9e9"/><path fill-rule="nonzero" fill-opacity="1" d="M 79.027344 194.257812 C 77.441406 194.042969 75.832031 193.953125 74.226562 194.019531 C 72.75 194.082031 69.800781 194.390625 69.761719 194.980469 C 69.703125 195.835938 71.269531 195.503906 72.539062 195.359375 C 73.839844 195.214844 75.125 195.125 76.429688 195.234375 C 77.3125 195.3125 78.195312 195.417969 79.078125 195.515625 C 79.488281 195.558594 80.375 195.765625 80.445312 195.109375 C 80.519531 194.421875 79.457031 194.316406 79.027344 194.257812" fill="#e9e9e9"/><path fill-rule="nonzero" fill-opacity="1" d="M 74.328125 197.308594 C 73.628906 197.058594 70.6875 196.214844 70.230469 196.558594 C 69.71875 196.933594 70.0625 197.421875 70.914062 197.730469 C 72.472656 198.289062 75.789062 198.78125 79.0625 200.679688 C 79.714844 201.054688 80.351562 200.355469 79.84375 199.816406 C 79.542969 199.492188 75.855469 197.859375 74.328125 197.308594" fill="#e9e9e9"/><path fill-rule="nonzero" fill-opacity="1" d="M 55.519531 186.023438 C 56.148438 186.023438 56.652344 185.515625 56.652344 184.890625 C 56.652344 184.265625 56.148438 183.757812 55.519531 183.757812 C 54.894531 183.757812 54.386719 184.265625 54.386719 184.890625 C 54.386719 185.515625 54.894531 186.023438 55.519531 186.023438" fill="#e9e9e9"/><path fill-rule="nonzero" fill-opacity="1" d="M 68.746094 186.023438 C 69.371094 186.023438 69.882812 185.515625 69.882812 184.890625 C 69.882812 184.265625 69.371094 183.757812 68.746094 183.757812 C 68.117188 183.757812 67.613281 184.265625 67.613281 184.890625 C 67.613281 185.515625 68.117188 186.023438 68.746094 186.023438" fill="#e9e9e9"/><g clip-path="url(#3de4f01f92)"><path fill-rule="nonzero" fill-opacity="1" d="M 96.890625 209.496094 C 96.941406 209.414062 100.398438 208.320312 102.148438 208.304688 C 103.125 208.296875 104.59375 208.371094 105.332031 209.175781 C 106.164062 210.082031 105.605469 211.835938 104.527344 212.300781 C 101.980469 213.375 98.785156 211.078125 96.890625 209.496094 Z M 97.582031 203.988281 C 97.824219 202.929688 98.15625 199.253906 99.828125 199.175781 C 100.453125 199.191406 101.140625 199.585938 101.605469 199.972656 C 102.328125 200.574219 102.398438 201.199219 101.957031 202.007812 C 100.878906 203.988281 98.355469 205.296875 96.628906 206.628906 C 97.035156 205.753906 97.371094 204.925781 97.582031 203.988281 Z M 93.652344 214.484375 C 94.101562 213.890625 94.5 213.269531 94.890625 212.621094 C 95.1875 213.640625 95.785156 216.617188 95.785156 217.019531 Z M 94.210938 234.058594 C 92.917969 231.574219 86.609375 222.3125 84.90625 220.558594 C 85.40625 220.34375 88.035156 219.039062 88.820312 218.558594 C 88.945312 218.773438 94.539062 225.992188 95.246094 226.488281 C 94.972656 229.023438 94.617188 231.550781 94.210938 234.058594 Z M 89.800781 250.945312 C 89.179688 250.554688 85.070312 249.023438 83.160156 248.023438 C 83.171875 247.941406 71.617188 223.867188 71.574219 223.71875 C 71.917969 223.691406 75.625 223.238281 77.121094 222.933594 C 77.265625 224.226562 90.050781 247.882812 90.757812 248.699219 C 90.550781 249.195312 90.007812 250.449219 89.800781 250.945312 Z M 62.390625 239.933594 C 62.421875 239.894531 57.8125 225.382812 56.976562 222.996094 C 58.972656 223.3125 60.988281 223.554688 63.007812 223.707031 C 64.453125 226.285156 72.261719 244.320312 72.472656 244.875 C 71.40625 244.445312 64.644531 241.214844 62.390625 239.933594 Z M 46.992188 218.953125 C 43.132812 217.882812 39.238281 216.710938 35.550781 215.136719 C 33.195312 214.121094 30.867188 212.988281 28.566406 211.851562 C 29.171875 209.324219 35.035156 191.476562 37.261719 186.765625 C 38.972656 183.140625 40.867188 179.507812 43.867188 176.777344 C 47.289062 173.664062 51.683594 171.777344 56.199219 170.957031 C 60.773438 170.125 65.554688 170.332031 70.035156 171.546875 C 74.066406 172.644531 78.035156 174.632812 80.820312 177.816406 C 83.054688 180.367188 84.546875 183.601562 85.910156 186.675781 C 88.078125 191.539062 93.390625 207.5625 94.273438 210.550781 C 93.074219 212.488281 91.964844 214.15625 90.144531 215.585938 C 88.453125 216.917969 86.554688 217.976562 84.578125 218.828125 C 82.585938 219.6875 80.503906 220.339844 78.398438 220.859375 C 75.972656 221.457031 73.5 221.839844 71.003906 222.007812 C 68.351562 222.1875 65.683594 222.144531 63.03125 221.9375 C 60.3125 221.726562 57.605469 221.335938 54.925781 220.820312 C 52.253906 220.316406 49.609375 219.675781 46.992188 218.953125 Z M 43.398438 227.527344 C 42.820312 225.410156 41.183594 219.488281 41.125 219.105469 C 43.078125 219.734375 45.050781 220.300781 47.019531 220.832031 C 47.609375 222.71875 50.429688 231.886719 50.578125 232.476562 C 48.152344 230.871094 45.75 229.230469 43.398438 227.527344 Z M 28.707031 216.214844 C 28.421875 215.996094 28.066406 215.714844 27.960938 215.453125 C 27.832031 215.136719 28.023438 213.847656 28.085938 213.601562 C 29.921875 214.417969 31.699219 215.347656 33.511719 216.199219 C 33.503906 216.230469 33.6875 219.289062 33.878906 220.035156 C 32.859375 219.214844 29.363281 216.730469 28.707031 216.214844 Z M 44.34375 172.878906 C 43.835938 173.273438 42.082031 174.679688 41.328125 175.425781 C 41.3125 175.441406 41.296875 175.429688 41.289062 175.410156 C 40.914062 173.128906 40.714844 170.007812 41.574219 168.285156 C 41.640625 168.152344 41.8125 168.109375 41.929688 168.203125 C 43.136719 169.164062 44.167969 171.945312 44.414062 172.632812 C 44.449219 172.726562 44.417969 172.820312 44.34375 172.878906 Z M 36.898438 170.269531 C 37.34375 168.003906 37.703125 165.765625 39.203125 163.9375 C 40.152344 162.78125 41.996094 162.597656 43.40625 163.324219 C 45.539062 164.417969 48.855469 169.707031 49.265625 170.113281 C 48.003906 170.65625 46.789062 171.28125 45.628906 172.007812 C 45.585938 172.039062 43.472656 166.847656 41.71875 166.746094 C 41.140625 166.742188 40.75 167.148438 40.5 167.625 C 39.566406 169.394531 39.808594 176.085938 40.054688 176.824219 C 39.394531 177.570312 37.214844 180.71875 36.324219 182.519531 C 36.113281 178.667969 36.035156 174.609375 36.898438 170.269531 Z M 83.445312 176.570312 C 82.449219 175.332031 79.671875 172.9375 79.488281 172.804688 C 79.632812 172.5 81.5 169.566406 82.539062 168.773438 C 82.707031 168.644531 82.949219 168.703125 83.042969 168.894531 C 83.691406 170.234375 83.445312 174.582031 83.445312 176.570312 Z M 81.128906 164.253906 C 82.984375 162.960938 84.613281 163.332031 85.691406 165.371094 C 87.058594 167.972656 87.121094 171.363281 87.167969 174.234375 C 87.195312 176.335938 86.972656 181.617188 86.921875 182.164062 C 86.546875 181.421875 85.078125 178.851562 84.722656 178.324219 C 84.660156 178.230469 84.632812 178.128906 84.636719 178.011719 C 84.660156 177.171875 85.449219 167.753906 83.089844 167.140625 C 81.261719 167.089844 78.671875 171.832031 78.542969 172.15625 C 77.523438 171.5 76.457031 170.921875 75.359375 170.417969 C 77.089844 167.753906 79.589844 165.332031 81.128906 164.253906 Z M 108.503906 260.285156 C 108.273438 258.050781 107.875 255.824219 107.484375 253.609375 C 106.484375 247.917969 105.226562 242.273438 103.921875 236.644531 C 102.570312 230.804688 98.34375 214.6875 97.703125 212.441406 C 99.199219 213.410156 100.917969 214.09375 102.546875 214.292969 C 104.132812 214.492188 105.898438 214.179688 106.851562 212.761719 C 107.792969 211.363281 107.9375 209.242188 106.75 207.953125 C 105.359375 206.449219 102.878906 206.328125 101 206.574219 C 100.484375 206.640625 99.964844 206.742188 99.453125 206.851562 C 100.035156 206.414062 100.617188 205.972656 101.179688 205.523438 C 102.589844 204.390625 104.394531 202.652344 104.085938 200.632812 C 103.8125 198.820312 101.640625 197.355469 99.878906 197.332031 C 99.664062 197.324219 99.449219 197.351562 99.234375 197.398438 C 97.289062 197.859375 96.613281 200.191406 96.238281 201.875 C 96 202.941406 95.894531 204.027344 95.515625 205.050781 C 93.625 197.339844 89.234375 187.226562 88.851562 186.332031 C 89.132812 185.328125 90.347656 173.652344 89.632812 168.957031 C 89.113281 165.574219 87.511719 160.175781 83.34375 160.636719 C 77.296875 161.304688 72.851562 169.390625 72.835938 169.40625 C 68.746094 168.234375 61.421875 166.167969 51.519531 169.253906 C 51.441406 169.039062 46.996094 158.015625 40.320312 160.347656 C 37.910156 161.1875 36.691406 163.15625 35.820312 165.464844 C 34.117188 169.980469 33.382812 179.320312 34.152344 185.933594 C 34.152344 185.9375 28.859375 200.949219 27.125 206.976562 C 26.765625 208.222656 22.09375 226.5 20.539062 233.617188 C 18.945312 240.914062 17.527344 248.269531 15.570312 255.484375 C 15.257812 256.636719 14.828125 257.777344 14.546875 258.933594 C 14.34375 259.75 14.371094 260.679688 15.402344 260.757812 C 16.050781 260.808594 16.371094 260.382812 16.589844 259.871094 C 17.082031 258.726562 17.4375 257.519531 17.761719 256.308594 C 20.355469 246.628906 26.0625 221.484375 26.921875 218.101562 C 38.359375 229.363281 59.855469 240.722656 66.386719 243.960938 C 68.757812 245.140625 91.007812 254.585938 91.527344 254.152344 C 93.652344 252.382812 97.984375 230.15625 97.523438 223.96875 C 97.503906 223.710938 97.917969 223.691406 97.980469 223.941406 C 98.960938 227.804688 101.828125 239.242188 103.140625 245.257812 C 103.964844 249.039062 105.289062 262.210938 105.777344 262.765625 C 106.625 263.710938 107.480469 263.621094 107.84375 263.457031 C 108.902344 262.976562 108.59375 261.183594 108.503906 260.285156" fill="#e9e9e9"/></g></svg>