<svg width="238" height="290" viewBox="0 0 238 290" fill="none" xmlns="http://www.w3.org/2000/svg">
<path d="M307.297 234.025C312.317 212.445 307.297 188.975 294.137 171.175C279.467 151.335 255.887 142.985 235.157 131.275C225.317 125.705 215.737 119.165 208.367 110.475C204.697 106.145 201.687 101.335 199.457 96.1148C197.107 90.5848 195.597 84.7548 194.377 78.8948C191.917 67.0048 190.487 54.8448 185.787 43.5448C181.457 33.1348 174.927 23.6448 166.807 15.8248C149.427 -0.925184 124.957 -9.04521 100.987 -6.38521C97.9373 -6.04521 94.8873 -5.52517 91.8773 -4.91517C91.3073 -4.79517 91.0573 -5.65518 91.6373 -5.79518C115.077 -11.7552 141.377 -5.71521 160.457 8.92479C169.257 15.6848 176.687 24.1948 182.197 33.8248C184.987 38.6848 187.277 43.8348 189.017 49.1648C190.927 55.0448 192.137 61.1148 193.257 67.1848C195.527 79.4748 197.507 92.1948 204.187 103.005C210.397 113.055 219.777 120.675 229.687 126.875C250.067 139.625 274.387 147.065 290.727 165.535C305.277 181.985 312.247 204.835 309.357 226.605C309.017 229.165 308.517 231.695 307.897 234.195C307.817 234.585 307.207 234.415 307.297 234.025Z" fill="#E4E0FF"/>
<path d="M274.886 253.966C280.67 229.1 274.886 202.055 259.721 181.544C242.817 158.683 215.646 149.061 191.759 135.567C180.42 129.149 169.381 121.613 160.889 111.6C156.66 106.61 153.191 101.068 150.622 95.0525C147.914 88.6803 146.174 81.9624 144.768 75.21C141.933 61.5091 140.285 47.4971 134.87 34.4761C129.88 22.4807 122.356 11.5454 112.999 2.53437C92.972 -16.7667 64.7752 -26.1234 37.1545 -23.0583C33.64 -22.6665 30.1255 -22.0672 26.6571 -21.3643C26.0003 -21.2261 25.7122 -22.217 26.3806 -22.3784C53.3905 -29.2461 83.696 -22.2862 105.682 -5.41653C115.822 2.37302 124.384 12.1791 130.733 23.2758C133.948 28.876 136.587 34.8103 138.592 40.952C140.792 47.7276 142.187 54.722 143.477 61.7165C146.093 75.8783 148.375 90.5355 156.072 102.992C163.228 114.573 174.036 123.353 185.456 130.497C208.94 145.189 236.964 153.762 255.792 175.045C272.558 194.001 280.59 220.331 277.259 245.416C276.868 248.366 276.291 251.281 275.577 254.162C275.485 254.612 274.782 254.416 274.886 253.966Z" fill="#E4E0FF"/>
<path d="M247.485 289.451C253.237 263.026 247.485 234.286 232.406 212.49C215.597 188.195 188.579 177.97 164.826 163.631C153.552 156.811 142.575 148.802 134.13 138.161C129.925 132.859 126.476 126.969 123.921 120.577C121.228 113.805 119.498 106.666 118.1 99.4908C115.281 84.9312 113.643 70.0409 108.258 56.2038C103.296 43.4566 95.8139 31.8359 86.5099 22.2601C66.5957 1.74937 38.5577 -8.19378 11.0925 -4.93655C7.59781 -4.52021 4.10309 -3.88342 0.65419 -3.13646C0.00108337 -2.98952 -0.285355 -4.04262 0.379211 -4.21405C27.2371 -11.5122 57.372 -4.11612 79.2341 13.8109C89.3172 22.0887 97.8306 32.5094 104.144 44.3015C107.341 50.2527 109.965 56.559 111.958 63.0857C114.147 70.2859 115.533 77.7187 116.817 85.1516C119.418 100.201 121.686 115.777 129.34 129.014C136.456 141.32 147.204 150.651 158.559 158.243C181.91 173.856 209.777 182.966 228.499 205.583C245.171 225.727 253.157 253.707 249.846 280.365C249.456 283.5 248.883 286.598 248.173 289.659C248.081 290.137 247.382 289.928 247.485 289.451Z" fill="#E4E0FF"/>
</svg>
