<svg width="39" height="40" viewBox="0 0 39 40" fill="none" xmlns="http://www.w3.org/2000/svg">
<rect width="39" height="40" rx="19.5" fill="white" fill-opacity="0.65"/>
<rect x="0.5" y="0.5" width="38" height="39" rx="19" stroke="#E0E0E0" stroke-opacity="0.65"/>
<path fill-rule="evenodd" clip-rule="evenodd" d="M28.4769 11.5117C28.7555 11.7903 28.9765 12.121 29.1273 12.485C29.2781 12.849 29.3558 13.2392 29.3558 13.6332C29.3558 14.0272 29.2781 14.4173 29.1273 14.7813C28.9765 15.1453 28.7555 15.4761 28.4769 15.7547L26.9439 17.2877C27.2124 17.8462 27.3007 18.4743 27.1966 19.0852C27.0925 19.6961 26.8012 20.2596 26.3629 20.6977L25.6479 21.4117C25.2728 21.7866 24.7642 21.9972 24.2339 21.9972C23.7036 21.9972 23.1949 21.7866 22.8199 21.4117L16.3349 27.8967C16.0563 28.1754 15.7254 28.3965 15.3613 28.5473C14.9972 28.6981 14.607 28.7757 14.2129 28.7757H12.4129C12.0946 28.7757 11.7894 28.6492 11.5644 28.4242C11.3393 28.1992 11.2129 27.8939 11.2129 27.5757V25.7757C11.213 25.3815 11.2907 24.9912 11.4417 24.6271C11.5927 24.263 11.814 23.9322 12.0929 23.6537L18.5769 17.1687C18.2019 16.7936 17.9913 16.285 17.9913 15.7547C17.9913 15.2243 18.2019 14.7157 18.5769 14.3407L19.2909 13.6267C19.7289 13.1882 20.2923 12.8967 20.9032 12.7925C21.5141 12.6882 22.1423 12.7763 22.7009 13.0447L24.2339 11.5117C24.5125 11.233 24.8432 11.012 25.2072 10.8612C25.5712 10.7104 25.9614 10.6328 26.3554 10.6328C26.7494 10.6328 27.1395 10.7104 27.5036 10.8612C27.8676 11.012 28.1983 11.233 28.4769 11.5117ZM19.9919 18.5827L13.5059 25.0687L13.4189 25.1677C13.2853 25.3422 13.2129 25.5559 13.2129 25.7757V26.7757H14.2129L14.3449 26.7667C14.5625 26.7377 14.7646 26.6379 14.9199 26.4827L21.4059 19.9977L19.9919 18.5827ZM27.0619 12.9257C26.8744 12.7382 26.6201 12.6329 26.3549 12.6329C26.0897 12.6329 25.8354 12.7382 25.6479 12.9257L23.5339 15.0407C23.3445 15.23 23.0877 15.3363 22.8199 15.3363C22.5521 15.3363 22.2953 15.23 22.1059 15.0407C21.9202 14.855 21.6684 14.7507 21.4059 14.7507C21.1433 14.7507 20.8915 14.855 20.7059 15.0407L19.9919 15.7547L24.2339 19.9977L24.9479 19.2827C25.1335 19.097 25.2378 18.8452 25.2378 18.5827C25.2378 18.3201 25.1335 18.0683 24.9479 17.8827C24.7586 17.6933 24.6522 17.4365 24.6522 17.1687C24.6522 16.9009 24.7586 16.6441 24.9479 16.4547L27.0629 14.3407C27.1559 14.2478 27.2296 14.1375 27.28 14.0161C27.3303 13.8947 27.3562 13.7646 27.3562 13.6332C27.3562 13.5018 27.3303 13.3716 27.28 13.2502C27.2296 13.1288 27.1549 13.0185 27.0619 12.9257Z" fill="black"/>
</svg>
