<svg width="24" height="24" viewBox="0 0 24 24" fill="currentColor" xmlns="http://www.w3.org/2000/svg">
<path d="M9 3.25C7.47501 3.25 6.01247 3.8558 4.93414 4.93414C3.8558 6.01247 3.25 7.47501 3.25 9V16.107C3.25 16.3059 3.32902 16.4967 3.46967 16.6373C3.61032 16.778 3.80109 16.857 4 16.857C4.19891 16.857 4.38968 16.778 4.53033 16.6373C4.67098 16.4967 4.75 16.3059 4.75 16.107V9C4.75 7.87283 5.19777 6.79183 5.9948 5.9948C6.79183 5.19777 7.87283 4.75 9 4.75H16.013C16.2119 4.75 16.4027 4.67098 16.5433 4.53033C16.684 4.38968 16.763 4.19891 16.763 4C16.763 3.80109 16.684 3.61032 16.5433 3.46967C16.4027 3.32902 16.2119 3.25 16.013 3.25H9Z" fill="#344054"/>
<path fill-rule="evenodd" clip-rule="evenodd" d="M18.403 6.79303C15.1444 6.43097 11.8556 6.43097 8.597 6.79303C8.14607 6.84312 7.72534 7.04429 7.40326 7.36384C7.08117 7.68339 6.87666 8.1025 6.823 8.55303C6.43872 11.8398 6.43872 15.1602 6.823 18.447C6.87666 18.8976 7.08117 19.3167 7.40326 19.6362C7.72534 19.9558 8.14607 20.1569 8.597 20.207C11.838 20.569 15.162 20.569 18.403 20.207C18.8539 20.1569 19.2747 19.9558 19.5968 19.6362C19.9188 19.3167 20.1233 18.8976 20.177 18.447C20.5613 15.1602 20.5613 11.8398 20.177 8.55303C20.1233 8.1025 19.9188 7.68339 19.5968 7.36384C19.2747 7.04429 18.8539 6.84312 18.403 6.79303ZM8.764 8.28403C11.894 7.93403 15.106 7.93403 18.236 8.28403C18.35 8.29665 18.4564 8.34733 18.5381 8.4279C18.6197 8.50846 18.6719 8.6142 18.686 8.72803C19.0575 11.8985 19.0575 15.1015 18.686 18.272C18.6719 18.3859 18.6197 18.4916 18.5381 18.5722C18.4564 18.6527 18.35 18.7034 18.236 18.716C15.106 19.066 11.894 19.066 8.764 18.716C8.64999 18.7034 8.54357 18.6527 8.46191 18.5722C8.38026 18.4916 8.32815 18.3859 8.314 18.272C7.94247 15.1015 7.94247 11.8985 8.314 8.72803C8.32815 8.6142 8.38026 8.50846 8.46191 8.4279C8.54357 8.34733 8.64999 8.29665 8.764 8.28403Z" fill="#344054"/>
</svg>
