<svg width="70" height="71" viewBox="0 0 70 71" fill="none" xmlns="http://www.w3.org/2000/svg">
<circle cx="35" cy="35.5" r="35" fill="#EBF5FF"/>
<g clip-path="url(#clip0_1367_7182)">
<path d="M29.9889 26.125H40.0089L42.1714 24.395C42.9077 23.8075 43.1827 22.8537 42.8714 21.9638C42.5602 21.0738 41.7514 20.5 40.8114 20.5H29.1864C28.2464 20.5 27.4377 21.075 27.1264 21.9638C26.8152 22.8525 27.0902 23.8075 27.8252 24.3937L29.9889 26.125Z" fill="#465fff"/>
<path d="M40.1813 28H29.8187C26.405 31.3512 23.75 37.2312 23.75 42.0625C23.75 46.2612 25.9725 50.5 30.9375 50.5H39.375C43.6162 50.5 46.25 47.2663 46.25 42.0625C46.25 37.2312 43.595 31.3512 40.1813 28ZM34.525 38.3125H35.475C36.9362 38.3125 38.125 39.5013 38.125 40.9625C38.125 42.2763 37.1775 43.3575 35.9375 43.5775V44.5613C35.9375 45.0788 35.5175 45.4988 35 45.4988C34.4825 45.4988 34.0625 45.0788 34.0625 44.5613V43.625H32.8125C32.295 43.625 31.875 43.205 31.875 42.6875C31.875 42.17 32.295 41.75 32.8125 41.75H35.475C35.9025 41.75 36.25 41.4025 36.25 40.975C36.25 40.535 35.9025 40.1875 35.475 40.1875H34.525C33.0638 40.1875 31.875 38.9987 31.875 37.5375C31.875 36.2238 32.8225 35.1425 34.0625 34.9225V33.9375C34.0625 33.42 34.4825 33 35 33C35.5175 33 35.9375 33.42 35.9375 33.9375V34.875H37.1875C37.705 34.875 38.125 35.295 38.125 35.8125C38.125 36.33 37.705 36.75 37.1875 36.75H34.525C34.0975 36.75 33.75 37.0975 33.75 37.525C33.75 37.965 34.0975 38.3125 34.525 38.3125Z" fill="#465fff"/>
</g>
<defs>
<clipPath id="clip0_1367_7182">
<rect width="30" height="30" fill="white" transform="translate(20 20.5)"/>
</clipPath>
</defs>
</svg>
