<svg width="36" height="36" viewBox="0 0 36 36" fill="none" xmlns="http://www.w3.org/2000/svg">
<path d="M23.8336 23.8336C20.6118 27.0555 15.3882 27.0555 12.1664 23.8336M34.5 18C34.5 27.1127 27.1127 34.5 18 34.5C8.8873 34.5 1.5 27.1127 1.5 18C1.5 8.8873 8.8873 1.5 18 1.5C27.1127 1.5 34.5 8.8873 34.5 18ZM13.875 13.875C13.875 14.6344 13.5672 15.25 13.1875 15.25C12.8078 15.25 12.5 14.6344 12.5 13.875C12.5 13.1156 12.8078 12.5 13.1875 12.5C13.5672 12.5 13.875 13.1156 13.875 13.875ZM13.1875 13.875H13.2013V13.9025H13.1875V13.875ZM23.5 13.875C23.5 14.6344 23.1922 15.25 22.8125 15.25C22.4328 15.25 22.125 14.6344 22.125 13.875C22.125 13.1156 22.4328 12.5 22.8125 12.5C23.1922 12.5 23.5 13.1156 23.5 13.875ZM22.8125 13.875H22.8263V13.9025H22.8125V13.875Z" stroke="#0F172A" stroke-width="2" stroke-linecap="round" stroke-linejoin="round"/>
</svg>
