<svg width="70" height="71" viewBox="0 0 70 71" fill="none" xmlns="http://www.w3.org/2000/svg">
<circle cx="35" cy="35.5" r="35" fill="#EBF5FF"/>
<path d="M39.6875 23.5C40.4334 23.5 41.1488 23.7963 41.6762 24.3238C42.2037 24.8512 42.5 25.5666 42.5 26.3125V45.6875C42.5 46.4334 42.2037 47.1488 41.6762 47.6762C41.1488 48.2037 40.4334 48.5 39.6875 48.5H30.3125C29.5666 48.5 28.8512 48.2037 28.3238 47.6762C27.7963 47.1488 27.5 46.4334 27.5 45.6875V26.3125C27.5 25.5666 27.7963 24.8512 28.3238 24.3238C28.8512 23.7963 29.5666 23.5 30.3125 23.5H39.6875ZM38.4375 26.625H31.5625C31.325 26.6251 31.0963 26.7153 30.9228 26.8775C30.7492 27.0396 30.6437 27.2616 30.6275 27.4986C30.6113 27.7356 30.6856 27.9699 30.8355 28.1541C30.9854 28.3384 31.1997 28.4589 31.435 28.4913L31.5625 28.5H38.4375C38.675 28.4999 38.9037 28.4097 39.0772 28.2475C39.2508 28.0854 39.3563 27.8634 39.3725 27.6264C39.3887 27.3894 39.3144 27.1551 39.1645 26.9709C39.0146 26.7866 38.8003 26.6661 38.565 26.6337L38.4375 26.625Z" fill="#148cfc"/>
</svg>
