<svg width="18" height="18" viewBox="0 0 18 18" fill="none" xmlns="http://www.w3.org/2000/svg">
<path d="M5 8H11.1875V9.125H5V8ZM5 10.8125H12.3125V11.9375H5V10.8125Z" fill="#2C2C2C"/>
<path d="M15.75 2.25H2.25C1.95163 2.25 1.66548 2.36853 1.4545 2.5795C1.24353 2.79048 1.125 3.07663 1.125 3.375V14.625C1.125 14.9234 1.24353 15.2095 1.4545 15.4205C1.66548 15.6315 1.95163 15.75 2.25 15.75H15.75C16.0484 15.75 16.3345 15.6315 16.5455 15.4205C16.7565 15.2095 16.875 14.9234 16.875 14.625V3.375C16.875 3.07663 16.7565 2.79048 16.5455 2.5795C16.3345 2.36853 16.0484 2.25 15.75 2.25ZM15.75 3.375V4.5H2.25V3.375H15.75ZM2.25 14.625V5.625H15.75V14.625H2.25Z" fill="#2C2C2C"/>
</svg>
