<svg width="272" height="283" viewBox="0 0 272 283" fill="none" xmlns="http://www.w3.org/2000/svg">
<path d="M-61.2973 234.025C-66.3173 212.445 -61.2973 188.975 -48.1373 171.175C-33.4673 151.335 -9.88732 142.985 10.8427 131.275C20.6827 125.705 30.2627 119.165 37.6327 110.475C41.3027 106.145 44.3127 101.335 46.5427 96.1148C48.8927 90.5848 50.4027 84.7548 51.6227 78.8948C54.0827 67.0048 55.5127 54.8448 60.2127 43.5448C64.5427 33.1348 71.0727 23.6448 79.1927 15.8248C96.5727 -0.925184 121.043 -9.04521 145.013 -6.38521C148.063 -6.04521 151.113 -5.52517 154.123 -4.91517C154.693 -4.79517 154.943 -5.65518 154.363 -5.79518C130.923 -11.7552 104.623 -5.71521 85.5427 8.92479C76.7427 15.6848 69.3127 24.1948 63.8027 33.8248C61.0127 38.6848 58.7227 43.8348 56.9827 49.1648C55.0727 55.0448 53.8627 61.1148 52.7427 67.1848C50.4727 79.4748 48.4927 92.1948 41.8127 103.005C35.6027 113.055 26.2227 120.675 16.3127 126.875C-4.06728 139.625 -28.3873 147.065 -44.7273 165.535C-59.2773 181.985 -66.2473 204.835 -63.3573 226.605C-63.0173 229.165 -62.5173 231.695 -61.8973 234.195C-61.8173 234.585 -61.2073 234.415 -61.2973 234.025Z" fill="#E4E0FF"/>
<path d="M-28.8856 253.966C-34.6702 229.1 -28.8857 202.055 -13.7214 181.544C3.18284 158.683 30.3541 149.061 54.2413 135.567C65.5799 129.149 76.619 121.613 85.1114 111.6C89.3404 106.61 92.8088 101.068 95.3784 95.0525C98.0863 88.6803 99.8263 81.9624 101.232 75.21C104.067 61.5091 105.715 47.4971 111.13 34.4761C116.12 22.4807 123.644 11.5454 133.001 2.53437C153.028 -16.7667 181.225 -26.1234 208.845 -23.0583C212.36 -22.6665 215.874 -22.0672 219.343 -21.3643C220 -21.2261 220.288 -22.217 219.619 -22.3784C192.61 -29.2461 162.304 -22.2862 140.318 -5.41653C130.178 2.37302 121.616 12.1791 115.267 23.2758C112.052 28.876 109.413 34.8103 107.408 40.952C105.208 47.7276 103.813 54.722 102.523 61.7165C99.907 75.8783 97.6254 90.5355 89.928 102.992C82.7723 114.573 71.9637 123.353 60.5444 130.497C37.0605 145.189 9.0365 153.762 -9.79209 175.045C-26.5581 194.001 -34.5896 220.331 -31.2595 245.416C-30.8677 248.366 -30.2915 251.281 -29.5771 254.162C-29.4849 254.612 -28.7819 254.416 -28.8856 253.966Z" fill="#E4E0FF"/>
<path d="M-10.4655 282.524C-17.0305 256.271 -10.4655 227.718 6.74476 206.063C25.9297 181.927 56.7669 171.768 83.877 157.522C96.7454 150.746 109.274 142.79 118.912 132.218C123.712 126.95 127.648 121.098 130.564 114.748C133.638 108.02 135.612 100.928 137.208 93.7987C140.425 79.3337 142.295 64.5403 148.442 50.7931C154.104 38.1287 162.644 26.5835 173.263 17.07C195.992 -3.30749 227.993 -13.186 259.341 -9.94996C263.329 -9.53633 267.318 -8.90368 271.254 -8.16157C272 -8.01558 272.327 -9.06183 271.568 -9.23215C240.914 -16.4829 206.52 -9.13486 181.567 8.67564C170.059 16.8996 160.342 27.2526 153.137 38.9681C149.488 44.8806 146.493 51.1459 144.217 57.6302C141.72 64.7836 140.137 72.1682 138.673 79.5527C135.704 94.5043 133.115 109.979 124.379 123.13C116.257 135.357 103.991 144.627 91.0305 152.169C64.3782 167.681 32.5732 176.732 11.2042 199.202C-7.82383 219.214 -16.939 247.013 -13.1595 273.497C-12.7149 276.612 -12.061 279.69 -11.2502 282.731C-11.1455 283.206 -10.3478 282.999 -10.4655 282.524Z" fill="#E4E0FF"/>
</svg>
