<svg width="44" height="44" viewBox="0 0 44 44" fill="none" xmlns="http://www.w3.org/2000/svg">
<path d="M28.875 9.625C31.9126 9.625 34.375 12.0874 34.375 15.125M39.875 15.125C39.875 21.2001 34.9501 26.125 28.875 26.125C28.232 26.125 27.6018 26.0698 26.989 25.9639C25.9568 25.7856 24.8637 26.0113 24.123 26.752L19.25 31.625H15.125V35.75H11V39.875H4.125V34.7086C4.125 33.6146 4.5596 32.5654 5.33318 31.7918L17.248 19.877C17.9887 19.1363 18.2144 18.0432 18.0361 17.011C17.9302 16.3982 17.875 15.768 17.875 15.125C17.875 9.04987 22.7999 4.125 28.875 4.125C34.9501 4.125 39.875 9.04987 39.875 15.125Z" stroke="#0F172A" stroke-width="2.5" stroke-linecap="round" stroke-linejoin="round"/>
</svg>
