<svg width="41" height="38" viewBox="0 0 41 38" fill="none" xmlns="http://www.w3.org/2000/svg">
<path d="M36.5 18.625V33.75C36.5 35.2688 35.2688 36.5 33.75 36.5H7.625C6.10622 36.5 4.875 35.2688 4.875 33.75V18.625M20 6.9375C20 4.27963 17.8454 2.125 15.1875 2.125C12.5296 2.125 10.375 4.27963 10.375 6.9375C10.375 9.59537 12.5296 11.75 15.1875 11.75C16.5341 11.75 20 11.75 20 11.75M20 6.9375C20 8.24877 20 11.75 20 11.75M20 6.9375C20 4.27963 22.1546 2.125 24.8125 2.125C27.4704 2.125 29.625 4.27963 29.625 6.9375C29.625 9.59537 27.4704 11.75 24.8125 11.75C23.4659 11.75 20 11.75 20 11.75M20 11.75V36.5M4.1875 18.625H37.1875C38.3266 18.625 39.25 17.7016 39.25 16.5625V13.8125C39.25 12.6734 38.3266 11.75 37.1875 11.75H4.1875C3.04841 11.75 2.125 12.6734 2.125 13.8125V16.5625C2.125 17.7016 3.04841 18.625 4.1875 18.625Z" stroke="#0F172A" stroke-width="2.5" stroke-linecap="round" stroke-linejoin="round"/>
</svg>
