<svg width="22" height="22" viewBox="0 0 22 22" fill="none" xmlns="http://www.w3.org/2000/svg">
<circle cx="10.6667" cy="10.6667" r="10.6667" fill="#ECECFE"/>
<g clip-path="url(#clip0_884_7242)">
<path opacity="0.4" d="M16.7066 7.95446L10.8793 13.814L9.11111 12.0419L14.9471 6.18429C15.0044 6.12649 15.0726 6.08055 15.1476 6.0491C15.2227 6.01765 15.3033 6.0013 15.3846 6.00098C15.466 6.00067 15.5467 6.01639 15.622 6.04726C15.6973 6.07813 15.7658 6.12354 15.8236 6.18089L15.827 6.18429L16.7066 7.06925C16.8234 7.18697 16.8889 7.34606 16.8889 7.51186C16.8889 7.67766 16.8234 7.83674 16.7066 7.95446Z" fill="#17ABDB"/>
<path d="M10.8774 13.8164L9.55104 15.1501C9.43526 15.2667 9.27788 15.3326 9.11352 15.3333C8.94915 15.3339 8.79127 15.2692 8.67458 15.1535L8.67118 15.1501L4.62674 11.0823C4.50994 10.9646 4.4444 10.8056 4.4444 10.6398C4.4444 10.474 4.50994 10.315 4.62674 10.1973L5.5066 9.31235C5.62219 9.19597 5.77922 9.13018 5.94324 9.1294C6.10727 9.12863 6.26491 9.19293 6.3816 9.30821L6.38549 9.31235L10.8774 13.8164Z" fill="#17ABDB"/>
</g>
<defs>
<clipPath id="clip0_884_7242">
<rect width="12.4444" height="12.4444" fill="white" transform="translate(4.44446 4.44434)"/>
</clipPath>
</defs>
</svg>
