<svg width="727" height="569" viewBox="0 0 727 569" fill="none" xmlns="http://www.w3.org/2000/svg">
<g clip-path="url(#clip0_2173_2907)">
<path d="M98.4348 492.271C98.4348 492.271 26.5558 257.558 84.7158 159.406C142.876 61.2533 219.211 125.835 267.025 155.992C314.839 186.149 469.363 -16.7361 583.829 11.7503C713.011 43.8988 651.284 204.972 619.061 270.361C569.01 371.927 703.505 350.874 625.951 492.271H98.4348Z" fill="#8D8D8D" fill-opacity="0.1"/>
<path d="M214.005 492.806C214.005 492.806 212.764 457.02 249.402 436.627C290.695 413.642 339.643 470.041 376.169 466.315C407.063 463.164 418.125 428.881 451.001 421.171C483.733 413.495 515.91 444.255 508.306 492.798L214.005 492.806Z" fill="#5AA85A"/>
<path d="M215.048 492.74C215.048 492.74 213.816 465.684 250.195 450.266C291.195 432.888 339.798 475.528 376.066 472.712C406.742 470.329 417.725 444.41 450.368 438.581C482.869 432.777 514.819 456.033 507.268 492.734L215.048 492.74Z" fill="#60BF60"/>
<path d="M221.888 492.76C221.888 492.76 220.713 476.52 255.396 467.264C294.485 456.833 340.823 482.428 375.4 480.738C404.646 479.307 415.118 463.749 446.239 460.25C477.225 456.767 507.686 470.726 500.487 492.756L221.888 492.76Z" fill="#5AA85A"/>
<path d="M155.079 79.1221C154.349 79.1221 153.634 79.1858 152.937 79.3024C153.003 78.7579 153.042 78.2045 153.042 77.6415C153.042 70.2829 147.179 64.3178 139.947 64.3178C135.387 64.3178 131.374 66.6897 129.029 70.2858C128.07 63.8888 122.64 58.9883 116.085 58.9883C108.852 58.9883 102.99 64.9537 102.99 72.3123C102.99 73.6562 103.187 74.9527 103.551 76.1758C103.365 76.1678 103.178 76.1613 102.99 76.1613C95.7575 76.1613 89.8945 82.1267 89.8945 89.4853C89.8945 96.8438 95.7575 102.809 102.99 102.809C105.813 102.809 108.426 101.897 110.565 100.35C113.468 106.532 119.669 110.803 126.852 110.803C134.536 110.803 141.094 105.913 143.695 99.0274C145.948 103.053 150.2 105.77 155.079 105.77C162.311 105.77 168.174 99.8044 168.174 92.4458C168.174 85.0872 162.311 79.1221 155.079 79.1221Z" fill="#A2C3F2"/>
<path d="M578.497 149.622C579.126 149.622 579.741 149.676 580.342 149.777C580.284 149.308 580.251 148.831 580.251 148.347C580.251 142.009 585.301 136.871 591.53 136.871C595.456 136.871 598.913 138.914 600.933 142.011C601.759 136.502 606.436 132.281 612.081 132.281C618.31 132.281 623.36 137.419 623.36 143.757C623.36 144.914 623.19 146.031 622.876 147.084C623.037 147.077 623.197 147.072 623.36 147.072C629.588 147.072 634.638 152.209 634.638 158.547C634.638 164.884 629.588 170.022 623.36 170.022C620.928 170.022 618.678 169.236 616.836 167.904C614.335 173.228 608.994 176.907 602.808 176.907C596.19 176.907 590.542 172.696 588.302 166.765C586.361 170.232 582.699 172.572 578.497 172.572C572.268 172.572 567.219 167.434 567.219 161.097C567.218 154.759 572.268 149.622 578.497 149.622Z" fill="white"/>
<path d="M255.392 491.952L469.074 491.941L469.072 448.692L255.39 448.703L255.392 491.952Z" fill="#BFBFBF"/>
<path d="M469.076 491.938L469.074 448.691L502.67 462.15L523.07 470.321L502.671 478.494L469.076 491.938Z" fill="#F1F3F2"/>
<path d="M225 470.325C224.998 469.327 225.067 468.342 225.196 467.38C226.609 456.831 235.496 448.698 246.251 448.699L252.101 448.7L276.505 448.699L276.505 491.951L252.101 491.951H246.254C234.515 491.952 225.001 482.27 225 470.325Z" fill="#3E8EDD"/>
<path d="M275.823 462.836C275.869 462.494 276.157 462.231 276.505 462.231L469.045 462.223C469.426 462.223 469.734 462.537 469.734 462.924C469.736 463.312 469.426 463.625 469.045 463.625L276.506 463.633C276.125 463.633 275.816 463.319 275.816 462.932C275.817 462.9 275.819 462.868 275.823 462.836Z" fill="#4F4F4F"/>
<path d="M275.823 477.645C275.868 477.303 276.157 477.04 276.505 477.039L469.075 477.031C469.456 477.031 469.764 477.345 469.764 477.732C469.767 478.118 469.456 478.434 469.075 478.434L276.506 478.442C276.125 478.442 275.816 478.128 275.816 477.741C275.816 477.708 275.818 477.676 275.823 477.645Z" fill="#4F4F4F"/>
<path d="M275.819 448.606C275.865 448.264 276.153 448 276.501 448C276.882 448 277.191 448.314 277.191 448.701L277.193 491.95C277.194 492.337 276.884 492.651 276.504 492.652C276.123 492.652 275.814 492.338 275.814 491.951L275.812 448.702C275.812 448.669 275.815 448.637 275.819 448.606Z" fill="#305777"/>
<path d="M269.811 448.606C269.857 448.264 270.145 448 270.494 448C270.874 448 271.183 448.314 271.183 448.701L271.185 491.95C271.185 492.334 270.877 492.652 270.496 492.652C270.115 492.652 269.807 492.338 269.807 491.951L269.805 448.702C269.805 448.669 269.807 448.637 269.811 448.606Z" fill="#305777"/>
<path d="M225 470.325C224.998 469.327 225.067 468.342 225.196 467.38C226.609 456.831 235.496 448.698 246.251 448.699L252.101 448.7L252.101 491.951H246.254C234.515 491.952 225.001 482.27 225 470.325Z" fill="#273266"/>
<path d="M502.669 478.496L502.668 462.152L523.068 470.323L502.669 478.496Z" fill="#273266"/>
<path d="M551.493 80.6478V296.644C551.493 313.329 538.2 326.858 521.798 326.858H234.446C218.043 326.858 204.75 313.329 204.75 296.644V80.6478C204.75 65.8413 215.222 53.519 229.045 50.9335C230.296 50.699 231.578 50.5428 232.883 50.4766C233.402 50.4492 233.92 50.4336 234.446 50.4336H521.798C538.2 50.4333 551.493 63.9627 551.493 80.6478Z" fill="#F1F3F2"/>
<path d="M551.665 81.1676V96.4856H204.922V81.1676C204.922 64.4825 218.215 50.9531 234.618 50.9531H521.97C538.372 50.9534 551.665 64.4825 551.665 81.1676Z" fill="#273266"/>
<path d="M521.967 329.331H234.615C217.182 329.331 203 314.9 203 297.163V81.167C203 65.6401 213.879 52.3358 228.867 49.532C230.222 49.2785 231.598 49.1144 232.956 49.0452C233.535 49.0148 234.079 49 234.615 49H521.967C539.399 49 553.582 63.4301 553.582 81.1673V297.163C553.582 314.9 539.4 329.331 521.967 329.331ZM234.615 52.9056C234.146 52.9056 233.667 52.9187 233.152 52.9457C231.959 53.0066 230.752 53.1506 229.561 53.3733C216.395 55.8362 206.839 67.5252 206.839 81.167V297.163C206.839 312.747 219.299 325.425 234.615 325.425H521.967C537.283 325.425 549.743 312.747 549.743 297.163V81.167C549.743 65.5835 537.283 52.9056 521.967 52.9056H234.615Z" fill="#997243"/>
<path d="M515.971 81.9819C512.129 81.9819 509.004 78.802 509.004 74.8933C509.004 70.9848 512.129 67.8047 515.971 67.8047C519.812 67.8047 522.938 70.9845 522.938 74.8933C522.937 78.802 519.812 81.9819 515.971 81.9819ZM515.971 71.7106C514.246 71.7106 512.843 73.1382 512.843 74.8933C512.843 76.6484 514.246 78.076 515.971 78.076C517.696 78.076 519.099 76.6484 519.099 74.8933C519.099 73.1385 517.696 71.7106 515.971 71.7106Z" fill="#F1F3F2"/>
<path d="M488.584 81.9819C484.743 81.9819 481.617 78.802 481.617 74.8933C481.617 70.9848 484.742 67.8047 488.584 67.8047C492.425 67.8047 495.551 70.9845 495.551 74.8933C495.551 78.802 492.425 81.9819 488.584 81.9819ZM488.584 71.7106C486.859 71.7106 485.456 73.1382 485.456 74.8933C485.456 76.6484 486.859 78.076 488.584 78.076C490.309 78.076 491.712 76.6484 491.712 74.8933C491.712 73.1385 490.309 71.7106 488.584 71.7106Z" fill="#F1F3F2"/>
<path d="M461.197 81.9819C457.356 81.9819 454.23 78.802 454.23 74.8933C454.23 70.9848 457.356 67.8047 461.197 67.8047C465.039 67.8047 468.164 70.9845 468.164 74.8933C468.164 78.802 465.039 81.9819 461.197 81.9819ZM461.197 71.7106C459.472 71.7106 458.069 73.1382 458.069 74.8933C458.069 76.6484 459.472 78.076 461.197 78.076C462.922 78.076 464.325 76.6484 464.325 74.8933C464.325 73.1385 462.922 71.7106 461.197 71.7106Z" fill="#F1F3F2"/>
<path d="M534.493 119.648V335.644C534.493 352.329 521.2 365.858 504.798 365.858H217.446C201.043 365.858 187.75 352.329 187.75 335.644V119.648C187.75 104.841 198.222 92.519 212.045 89.9335C213.296 89.699 214.578 89.5428 215.883 89.4766C216.402 89.4492 216.92 89.4336 217.446 89.4336H504.798C521.2 89.4333 534.493 102.963 534.493 119.648Z" fill="#F1F3F2"/>
<path d="M534.665 120.168V135.486H187.922V120.168C187.922 103.483 201.215 89.9531 217.618 89.9531H504.97C521.372 89.9534 534.665 103.483 534.665 120.168Z" fill="#637EFF"/>
<path d="M504.967 368.331H217.615C200.182 368.331 186 353.9 186 336.163V120.167C186 104.64 196.879 91.3358 211.867 88.532C213.222 88.2785 214.598 88.1144 215.956 88.0452C216.535 88.0148 217.079 88 217.615 88H504.967C522.399 88 536.582 102.43 536.582 120.167V336.163C536.582 353.9 522.4 368.331 504.967 368.331ZM217.615 91.9056C217.146 91.9056 216.667 91.9187 216.152 91.9457C214.959 92.0066 213.752 92.1506 212.561 92.3733C199.395 94.8362 189.839 106.525 189.839 120.167V336.163C189.839 351.747 202.299 364.425 217.615 364.425H504.967C520.283 364.425 532.743 351.747 532.743 336.163V120.167C532.743 104.584 520.283 91.9056 504.967 91.9056H217.615Z" fill="#997243"/>
<path d="M498.971 120.982C495.129 120.982 492.004 117.802 492.004 113.893C492.004 109.985 495.129 106.805 498.971 106.805C502.812 106.805 505.938 109.985 505.938 113.893C505.937 117.802 502.812 120.982 498.971 120.982ZM498.971 110.711C497.246 110.711 495.843 112.138 495.843 113.893C495.843 115.648 497.246 117.076 498.971 117.076C500.696 117.076 502.099 115.648 502.099 113.893C502.099 112.138 500.696 110.711 498.971 110.711Z" fill="#F1F3F2"/>
<path d="M471.584 120.982C467.743 120.982 464.617 117.802 464.617 113.893C464.617 109.985 467.742 106.805 471.584 106.805C475.425 106.805 478.551 109.985 478.551 113.893C478.551 117.802 475.425 120.982 471.584 120.982ZM471.584 110.711C469.859 110.711 468.456 112.138 468.456 113.893C468.456 115.648 469.859 117.076 471.584 117.076C473.309 117.076 474.712 115.648 474.712 113.893C474.712 112.138 473.309 110.711 471.584 110.711Z" fill="#F1F3F2"/>
<path d="M444.197 120.982C440.356 120.982 437.23 117.802 437.23 113.893C437.23 109.985 440.356 106.805 444.197 106.805C448.039 106.805 451.164 109.985 451.164 113.893C451.164 117.802 448.039 120.982 444.197 120.982ZM444.197 110.711C442.472 110.711 441.069 112.138 441.069 113.893C441.069 115.648 442.472 117.076 444.197 117.076C445.922 117.076 447.325 115.648 447.325 113.893C447.325 112.138 445.922 110.711 444.197 110.711Z" fill="#F1F3F2"/>
<path d="M515.79 157.031V373.027C515.79 389.712 502.497 403.241 486.095 403.241H198.743C182.34 403.241 169.047 389.712 169.047 373.027V157.031C169.047 142.224 179.519 129.902 193.342 127.316C194.593 127.082 195.875 126.926 197.18 126.859C197.699 126.832 198.217 126.816 198.743 126.816H486.095C502.497 126.816 515.79 140.346 515.79 157.031Z" fill="#F1F3F2"/>
<path d="M515.962 157.55V172.868H169.219V157.55C169.219 140.865 182.512 127.336 198.914 127.336H486.267C502.669 127.336 515.962 140.865 515.962 157.55Z" fill="#50AAFD"/>
<path d="M199.158 384.848H323.701C330.405 384.848 335.839 379.318 335.839 372.497V293.925C335.839 287.104 330.405 281.574 323.701 281.574H199.158C192.454 281.574 187.02 287.104 187.02 293.925V372.497C187.02 379.318 192.454 384.848 199.158 384.848Z" fill="#9988F6"/>
<path d="M330.249 336.766V379.156H194.355C194.355 379.156 263.98 336.766 330.249 336.766Z" fill="#F1F3F2"/>
<path d="M268.387 342.457C268.387 342.457 233.435 329.086 194.289 329.086V374.89C194.289 374.89 226.445 353.268 268.387 342.457Z" fill="#F1F3F2"/>
<path d="M285.664 321.183C290.032 318.889 291.744 313.426 289.489 308.983C287.234 304.539 281.865 302.797 277.498 305.091C273.13 307.386 271.418 312.848 273.673 317.292C275.928 321.736 281.297 323.478 285.664 321.183Z" fill="#F1F3F2"/>
<path d="M486.264 405.713H198.912C181.479 405.713 167.297 391.283 167.297 373.546V157.55C167.297 142.023 178.176 128.719 193.164 125.915C194.519 125.661 195.895 125.497 197.253 125.428C197.832 125.398 198.376 125.383 198.912 125.383H486.264C503.696 125.383 517.879 139.813 517.879 157.55V373.546C517.879 391.283 503.697 405.713 486.264 405.713ZM198.912 129.288C198.442 129.288 197.964 129.302 197.449 129.329C196.256 129.389 195.049 129.533 193.858 129.756C180.692 132.219 171.136 143.908 171.136 157.55V373.546C171.136 389.129 183.596 401.808 198.912 401.808H486.264C501.58 401.808 514.04 389.129 514.04 373.546V157.55C514.04 141.966 501.58 129.288 486.264 129.288H198.912Z" fill="#305777"/>
<path d="M480.268 158.365C476.426 158.365 473.301 155.185 473.301 151.276C473.301 147.368 476.426 144.188 480.268 144.188C484.109 144.188 487.235 147.367 487.235 151.276C487.234 155.185 484.109 158.365 480.268 158.365ZM480.268 148.093C478.543 148.093 477.14 149.521 477.14 151.276C477.14 153.031 478.543 154.459 480.268 154.459C481.993 154.459 483.396 153.031 483.396 151.276C483.396 149.521 481.993 148.093 480.268 148.093Z" fill="#F1F3F2"/>
<path d="M452.881 158.365C449.04 158.365 445.914 155.185 445.914 151.276C445.914 147.368 449.039 144.188 452.881 144.188C456.722 144.188 459.848 147.367 459.848 151.276C459.848 155.185 456.722 158.365 452.881 158.365ZM452.881 148.093C451.156 148.093 449.753 149.521 449.753 151.276C449.753 153.031 451.156 154.459 452.881 154.459C454.606 154.459 456.009 153.031 456.009 151.276C456.009 149.521 454.606 148.093 452.881 148.093Z" fill="#F1F3F2"/>
<path d="M425.494 158.365C421.653 158.365 418.527 155.185 418.527 151.276C418.527 147.368 421.653 144.188 425.494 144.188C429.336 144.188 432.461 147.367 432.461 151.276C432.461 155.185 429.336 158.365 425.494 158.365ZM425.494 148.093C423.769 148.093 422.366 149.521 422.366 151.276C422.366 153.031 423.769 154.459 425.494 154.459C427.219 154.459 428.622 153.031 428.622 151.276C428.622 149.521 427.219 148.093 425.494 148.093Z" fill="#F1F3F2"/>
<path d="M485.677 384.848H361.135C354.431 384.848 348.996 379.318 348.996 372.497V293.925C348.996 287.104 354.431 281.574 361.135 281.574H485.677C492.381 281.574 497.816 287.104 497.816 293.925V372.497C497.816 379.318 492.381 384.848 485.677 384.848Z" fill="#148CFC"/>
<path d="M423.406 367.206C441.86 367.206 456.82 351.985 456.82 333.209C456.82 314.432 441.86 299.211 423.406 299.211C404.952 299.211 389.992 314.432 389.992 333.209C389.992 351.985 404.952 367.206 423.406 367.206Z" fill="#4F4F4F"/>
<path d="M439.627 330.58L414.222 318.417C412.327 317.51 410.148 318.916 410.148 321.047V345.374C410.148 347.505 412.327 348.912 414.222 348.004L439.627 335.841C441.814 334.794 441.814 331.627 439.627 330.58Z" fill="#F1F3F2"/>
<path d="M243.73 266.494H195.412C190.82 266.494 187.098 262.706 187.098 258.034V198.28C187.098 193.608 190.82 189.82 195.412 189.82H243.731C248.323 189.82 252.045 193.608 252.045 198.28V258.034C252.045 262.706 248.322 266.494 243.73 266.494Z" fill="#4F4F4F"/>
<path d="M234.18 213.293H204.961V243.023H234.18V213.293Z" fill="#F1F3F2"/>
<path d="M327.603 267.633H322.011V265.357H327.603V267.633ZM316.419 267.633H310.826V265.357H316.419V267.633ZM305.234 267.633H299.642V265.357H305.234V267.633ZM294.049 267.633H288.457V265.357H294.049V267.633ZM282.865 267.633H279.284C278.521 267.633 277.761 267.54 277.026 267.356L277.56 265.146C278.12 265.286 278.701 265.357 279.284 265.357H282.865V267.633ZM331.473 266.79L330.554 264.715C332.033 264.038 333.257 262.857 334.002 261.389L335.989 262.434C335.014 264.356 333.41 265.903 331.473 266.79ZM271.813 263.895C270.53 262.203 269.852 260.177 269.852 258.036V257.902H272.088V258.036C272.088 259.669 272.605 261.214 273.584 262.504L271.813 263.895ZM337.036 256.373H334.799V250.683H337.036V256.373ZM272.088 252.212H269.852V246.522H272.088V252.212ZM337.036 244.993H334.799V239.303H337.036V244.993ZM272.088 240.832H269.852V235.142H272.088V240.832ZM337.036 233.613H334.799V227.923H337.036V233.613ZM272.088 229.452H269.852V223.762H272.088V229.452ZM337.036 222.233H334.799V216.543H337.036V222.233ZM272.088 218.072H269.852V212.382H272.088V218.072ZM337.036 210.853H334.799V205.163H337.036V210.853ZM272.088 206.692H269.852V201.002H272.088V206.692ZM337.036 199.473H334.799V198.281C334.799 196.973 334.456 195.69 333.808 194.571L335.735 193.415C336.587 194.885 337.036 196.568 337.036 198.281V199.473ZM272.525 195.763L270.424 194.981C271.154 192.953 272.556 191.215 274.373 190.086L275.539 192.028C274.152 192.89 273.081 194.217 272.525 195.763ZM330.185 191.444C329.362 191.123 328.494 190.96 327.603 190.96H325.062V188.684H327.603C328.769 188.684 329.908 188.898 330.987 189.32L330.185 191.444ZM319.469 190.96H313.877V188.684H319.469V190.96ZM308.285 190.96H302.692V188.684H308.285V190.96ZM297.1 190.96H291.508V188.684H297.1V190.96ZM285.915 190.96H280.323V188.684H285.915V190.96Z" fill="#FF593A"/>
<path d="M415.619 222.973H408.88C408.636 221.679 408.302 220.419 407.887 219.197L413.722 215.769C415.113 214.952 415.59 213.142 414.787 211.726L412.58 207.838C411.777 206.423 409.998 205.938 408.607 206.755L402.766 210.186C401.926 209.202 401.019 208.279 400.051 207.425L403.424 201.481C404.227 200.066 403.751 198.255 402.359 197.438L398.538 195.194C397.147 194.376 395.368 194.861 394.565 196.277L391.196 202.214C389.995 201.791 388.756 201.452 387.484 201.203V194.346C387.484 192.712 386.182 191.387 384.576 191.387H380.163C378.557 191.387 377.255 192.712 377.255 194.346V201.203C375.983 201.451 374.745 201.791 373.543 202.214L370.174 196.276C369.371 194.861 367.592 194.376 366.201 195.193L362.38 197.438C360.988 198.255 360.512 200.065 361.315 201.48L364.688 207.424C363.72 208.278 362.813 209.201 361.973 210.186L356.132 206.754C354.741 205.937 352.962 206.422 352.159 207.837L349.952 211.725C349.149 213.141 349.626 214.951 351.017 215.768L356.852 219.196C356.437 220.418 356.103 221.678 355.859 222.972H349.12C347.513 222.972 346.211 224.297 346.211 225.932V230.421C346.211 232.055 347.513 233.381 349.12 233.381H355.859C356.103 234.674 356.437 235.935 356.852 237.157L351.017 240.585C349.626 241.402 349.149 243.212 349.952 244.627L352.159 248.515C352.962 249.931 354.741 250.416 356.132 249.599L361.973 246.167C362.813 247.152 363.72 248.074 364.688 248.929L361.315 254.872C360.512 256.288 360.988 258.098 362.38 258.915L366.201 261.16C367.592 261.977 369.371 261.492 370.174 260.077L373.543 254.14C374.745 254.562 375.983 254.902 377.255 255.151V262.007C377.255 263.642 378.557 264.967 380.163 264.967H384.576C386.182 264.967 387.484 263.642 387.484 262.007V255.151C388.756 254.902 389.995 254.562 391.196 254.14L394.565 260.077C395.368 261.492 397.147 261.977 398.538 261.16L402.359 258.915C403.751 258.098 404.227 256.288 403.424 254.872L400.051 248.929C401.019 248.074 401.926 247.152 402.766 246.167L408.607 249.599C409.998 250.416 411.777 249.931 412.58 248.515L414.787 244.627C415.59 243.212 415.113 241.402 413.722 240.585L407.887 237.157C408.302 235.935 408.636 234.674 408.88 233.381H415.619C417.225 233.381 418.528 232.056 418.528 230.421V225.932C418.528 224.298 417.225 222.973 415.619 222.973ZM382.369 246.101C372.64 246.101 364.753 238.076 364.753 228.177C364.753 218.278 372.64 210.254 382.369 210.254C392.098 210.254 399.985 218.278 399.985 228.177C399.985 238.076 392.098 246.101 382.369 246.101Z" fill="#637EFF"/>
<path d="M492.215 204.628H435.563C432.513 204.628 430.039 202.111 430.039 199.007C430.039 195.903 432.513 193.387 435.563 193.387H492.215C495.266 193.387 497.739 195.903 497.739 199.007C497.739 202.111 495.266 204.628 492.215 204.628Z" fill="#3E8EDD"/>
<path d="M492.215 224.109H435.563C432.513 224.109 430.039 221.592 430.039 218.488C430.039 215.384 432.513 212.867 435.563 212.867H492.215C495.266 212.867 497.739 215.384 497.739 218.488C497.739 221.592 495.266 224.109 492.215 224.109Z" fill="#3E8EDD"/>
<path d="M492.215 243.593H435.563C432.513 243.593 430.039 241.076 430.039 237.972C430.039 234.868 432.513 232.352 435.563 232.352H492.215C495.266 232.352 497.739 234.868 497.739 237.972C497.739 241.077 495.266 243.593 492.215 243.593Z" fill="#3E8EDD"/>
<path d="M492.215 263.077H435.563C432.513 263.077 430.039 260.561 430.039 257.457C430.039 254.353 432.513 251.836 435.563 251.836H492.215C495.266 251.836 497.739 254.352 497.739 257.457C497.739 260.561 495.266 263.077 492.215 263.077Z" fill="#3E8EDD"/>
<path d="M208.715 229.442C209.345 231.647 211.556 232.897 213.653 232.235C215.751 231.573 216.94 229.249 216.31 227.045C215.68 224.84 213.47 223.589 211.372 224.251C209.275 224.913 208.086 227.237 208.715 229.442Z" fill="#F69D85"/>
<path d="M315.136 271.912L269.515 252.343C265.587 250.658 263.745 246.052 265.401 242.055L284.635 195.637C286.291 191.64 290.818 189.766 294.746 191.451L340.367 211.02C344.295 212.705 346.137 217.311 344.481 221.308L325.247 267.726C323.591 271.723 319.065 273.597 315.136 271.912Z" fill="#3E8EDD"/>
<path d="M318.908 228.724C323.604 227.248 326.236 222.178 324.786 217.4C323.336 212.621 318.353 209.943 313.656 211.418C308.96 212.894 306.328 217.964 307.778 222.743C309.228 227.521 314.211 230.199 318.908 228.724Z" fill="#F1F3F2"/>
<path d="M269.191 246.311C269.191 246.311 298.731 233.647 329.261 244.65L319.611 267.939L269.191 246.311Z" fill="#F1F3F2"/>
<path d="M280.937 217.961C280.937 217.961 296.346 222.029 310.645 238.004C310.645 238.004 289.846 234.94 270.41 243.166L280.937 217.961Z" fill="#F1F3F2"/>
<path d="M651.442 492H71.5584C71.2499 492 71 492.224 71 492.5C71 492.776 71.2499 493 71.5584 493L361.999 492.5L651.442 493C651.75 493 652 492.776 652 492.5C652 492.224 651.75 492 651.442 492Z" fill="#30313C"/>
</g>
<defs>
<clipPath id="clip0_2173_2907">
<rect width="727" height="569" fill="white"/>
</clipPath>
</defs>
</svg>
