<svg width="24" height="24" viewBox="0 0 24 24" fill="none" xmlns="http://www.w3.org/2000/svg">
<path d="M4.125 21C3.42881 21 2.76113 20.7234 2.26884 20.2312C1.77656 19.7389 1.5 19.0712 1.5 18.375V14.625C1.5 14.3266 1.61853 14.0405 1.8295 13.8295C2.04048 13.6185 2.32663 13.5 2.625 13.5C2.92337 13.5 3.20952 13.6185 3.4205 13.8295C3.63147 14.0405 3.75 14.3266 3.75 14.625V18.375C3.75 18.582 3.918 18.75 4.125 18.75H19.875C19.9745 18.75 20.0698 18.7105 20.1402 18.6402C20.2105 18.5698 20.25 18.4745 20.25 18.375V14.625C20.25 14.3266 20.3685 14.0405 20.5795 13.8295C20.7905 13.6185 21.0766 13.5 21.375 13.5C21.6734 13.5 21.9595 13.6185 22.1705 13.8295C22.3815 14.0405 22.5 14.3266 22.5 14.625V18.375C22.5 19.0712 22.2234 19.7389 21.7312 20.2312C21.2389 20.7234 20.5712 21 19.875 21H4.125Z" fill="#4f4f4f"/>
<path d="M17.67 7.07999C17.7744 7.18439 17.8572 7.30833 17.9137 7.44474C17.9703 7.58114 17.9993 7.72734 17.9993 7.87499C17.9993 8.02263 17.9703 8.16883 17.9137 8.30524C17.8572 8.44164 17.7744 8.56559 17.67 8.66999C17.5656 8.77439 17.4417 8.8572 17.3053 8.9137C17.1689 8.97021 17.0227 8.99929 16.875 8.99929C16.7274 8.99929 16.5812 8.97021 16.4448 8.9137C16.3084 8.8572 16.1844 8.77439 16.08 8.66999L13.125 5.71649V14.25C13.125 14.5484 13.0065 14.8345 12.7955 15.0455C12.5845 15.2565 12.2984 15.375 12 15.375C11.7017 15.375 11.4155 15.2565 11.2045 15.0455C10.9936 14.8345 10.875 14.5484 10.875 14.25V5.71649L7.92003 8.66999C7.81563 8.77439 7.69169 8.8572 7.55528 8.9137C7.41888 8.97021 7.27268 8.99929 7.12503 8.99929C6.97739 8.99929 6.83119 8.97021 6.69478 8.9137C6.55838 8.8572 6.43443 8.77439 6.33003 8.66999C6.22563 8.56559 6.14282 8.44164 6.08631 8.30524C6.02981 8.16883 6.00073 8.02263 6.00073 7.87499C6.00073 7.72734 6.02981 7.58114 6.08631 7.44474C6.14282 7.30833 6.22563 7.18439 6.33003 7.07999L11.205 2.20499C11.416 1.99431 11.7019 1.87598 12 1.87598C12.2982 1.87598 12.5841 1.99431 12.795 2.20499L17.67 7.07999Z" fill="#4f4f4f"/>
</svg>
