<svg width="395" height="453" viewBox="0 0 395 453" fill="none" xmlns="http://www.w3.org/2000/svg">
<path d="M7.14278 639.81C-6.12411 582.779 7.14271 520.752 41.922 473.71C80.692 421.277 143.009 399.209 197.795 368.262C223.8 353.542 249.118 336.258 268.596 313.292C278.295 301.848 286.249 289.136 292.143 275.341C298.353 260.726 302.344 245.319 305.568 229.832C312.07 198.409 315.849 166.272 328.27 136.409C339.713 108.897 356.971 83.8169 378.431 63.1502C424.362 18.8832 489.032 -2.57646 552.38 4.45341C560.441 5.35196 568.501 6.72631 576.456 8.33842C577.962 8.65555 578.623 6.38273 577.09 6.01274C515.143 -9.73839 445.637 6.22408 395.212 44.9148C371.956 62.7801 352.32 85.2705 337.758 110.721C330.384 123.565 324.332 137.175 319.734 151.261C314.686 166.801 311.488 182.843 308.528 198.885C302.529 231.365 297.296 264.981 279.642 293.55C263.231 320.11 238.441 340.248 212.251 356.634C158.391 390.33 94.1174 409.992 50.9339 458.805C12.4811 502.279 -5.93927 562.667 1.69844 620.201C2.597 626.966 3.91846 633.653 5.557 640.26C5.76842 641.29 7.38063 640.841 7.14278 639.81Z" fill="#F8F7FF"/>
<path d="M33.1428 682.81C19.8759 625.779 33.1427 563.752 67.922 516.71C106.692 464.277 169.009 442.209 223.795 411.262C249.8 396.542 275.118 379.258 294.596 356.292C304.295 344.848 312.249 332.136 318.143 318.341C324.353 303.726 328.344 288.319 331.568 272.832C338.07 241.409 341.849 209.272 354.27 179.409C365.713 151.897 382.971 126.817 404.431 106.15C450.363 61.8832 515.032 40.4235 578.38 47.4534C586.441 48.352 594.501 49.7263 602.456 51.3384C603.962 51.6556 604.623 49.3827 603.09 49.0127C541.143 33.2616 471.637 49.2241 421.212 87.9148C397.956 105.78 378.32 128.27 363.758 153.721C356.384 166.565 350.332 180.175 345.734 194.261C340.686 209.801 337.488 225.843 334.528 241.885C328.529 274.365 323.296 307.981 305.642 336.55C289.231 363.11 264.441 383.248 238.251 399.634C184.391 433.33 120.117 452.992 76.9339 501.805C38.4811 545.279 20.0607 605.667 27.6984 663.201C28.597 669.966 29.9185 676.653 31.557 683.26C31.7684 684.29 33.3806 683.841 33.1428 682.81Z" fill="#F8F7FF"/>
</svg>
