<svg width="55" height="56" viewBox="0 0 55 56" fill="none" xmlns="http://www.w3.org/2000/svg">
<g filter="url(#filter0_d_486_1738)">
<path d="M45.9168 20.5C45.9168 24.1342 44.8391 27.6868 42.82 30.7086C40.8009 33.7304 37.9312 36.0855 34.5736 37.4763C31.216 38.867 27.5214 39.2309 23.957 38.5219C20.3926 37.8129 17.1185 36.0629 14.5487 33.4931C11.9789 30.9233 10.2288 27.6492 9.51983 24.0848C8.81082 20.5204 9.17471 16.8258 10.5655 13.4682C11.9562 10.1106 14.3114 7.24082 17.3332 5.22175C20.3549 3.20268 23.9075 2.125 27.5418 2.125C32.6868 2.125 37.6072 4.16667 41.3026 7.71917L45.9168 12.3333" stroke="#2C2C2C" stroke-width="3" stroke-linecap="round" stroke-linejoin="round" shape-rendering="crispEdges"/>
</g>
<g filter="url(#filter1_d_486_1738)">
<path d="M45.9166 2.125V12.3333H35.7083" stroke="#2C2C2C" stroke-width="3" stroke-linecap="round" stroke-linejoin="round" shape-rendering="crispEdges"/>
</g>
<defs>
<filter id="filter0_d_486_1738" x="0.566748" y="0.625" width="53.95" height="54.85" filterUnits="userSpaceOnUse" color-interpolation-filters="sRGB">
<feFlood flood-opacity="0" result="BackgroundImageFix"/>
<feColorMatrix in="SourceAlpha" type="matrix" values="0 0 0 0 0 0 0 0 0 0 0 0 0 0 0 0 0 0 127 0" result="hardAlpha"/>
<feOffset dy="8"/>
<feGaussianBlur stdDeviation="3.55"/>
<feComposite in2="hardAlpha" operator="out"/>
<feColorMatrix type="matrix" values="0 0 0 0 0 0 0 0 0 0 0 0 0 0 0 0 0 0 0.25 0"/>
<feBlend mode="normal" in2="BackgroundImageFix" result="effect1_dropShadow_486_1738"/>
<feBlend mode="normal" in="SourceGraphic" in2="effect1_dropShadow_486_1738" result="shape"/>
</filter>
<filter id="filter1_d_486_1738" x="27.1083" y="0.625" width="27.4083" height="28.3083" filterUnits="userSpaceOnUse" color-interpolation-filters="sRGB">
<feFlood flood-opacity="0" result="BackgroundImageFix"/>
<feColorMatrix in="SourceAlpha" type="matrix" values="0 0 0 0 0 0 0 0 0 0 0 0 0 0 0 0 0 0 127 0" result="hardAlpha"/>
<feOffset dy="8"/>
<feGaussianBlur stdDeviation="3.55"/>
<feComposite in2="hardAlpha" operator="out"/>
<feColorMatrix type="matrix" values="0 0 0 0 0 0 0 0 0 0 0 0 0 0 0 0 0 0 0.25 0"/>
<feBlend mode="normal" in2="BackgroundImageFix" result="effect1_dropShadow_486_1738"/>
<feBlend mode="normal" in="SourceGraphic" in2="effect1_dropShadow_486_1738" result="shape"/>
</filter>
</defs>
</svg>
