<svg width="57" height="57" viewBox="0 0 57 57" fill="none" xmlns="http://www.w3.org/2000/svg">
<g filter="url(#filter0_d_1014_1571)">
<path fill-rule="evenodd" clip-rule="evenodd" d="M11.1179 20.5C11.1179 11.7593 18.0078 3.08271 28.7338 3.08271C37.3962 3.08271 41.6777 9.42204 43.5023 12.7933H38.0875C37.2266 12.7933 36.5285 13.4834 36.5285 14.3346C36.5285 15.1859 37.2266 15.876 38.0875 15.876H47.4411C48.3019 15.876 49 15.1859 49 14.3346V5.08653C49 4.23527 48.3019 3.54518 47.4411 3.54518C46.5802 3.54518 45.8821 4.23527 45.8821 5.08653V10.676C43.6856 6.84755 38.6047 0 28.7338 0C16.0665 0 8 10.282 8 20.5C8 30.718 16.0665 41 28.7338 41C34.7944 41 39.8403 38.6288 43.4331 35.0146C45.3568 33.0793 46.859 30.7932 47.8832 28.3323C48.2109 27.5451 47.8311 26.6443 47.0351 26.3204C46.2388 25.9964 45.3278 26.3719 45.0001 27.1591C44.1246 29.2626 42.8425 31.2109 41.2094 32.8537C38.1794 35.9021 33.9252 37.9173 28.7338 37.9173C18.0078 37.9173 11.1179 29.2407 11.1179 20.5Z" fill="#fff"/>
</g>
<defs>
<filter id="filter0_d_1014_1571" x="0.9" y="0" width="55.2" height="56.1" filterUnits="userSpaceOnUse" color-interpolation-filters="sRGB">
<feFlood flood-opacity="0" result="BackgroundImageFix"/>
<feColorMatrix in="SourceAlpha" type="matrix" values="0 0 0 0 0 0 0 0 0 0 0 0 0 0 0 0 0 0 127 0" result="hardAlpha"/>
<feOffset dy="8"/>
<feGaussianBlur stdDeviation="3.55"/>
<feComposite in2="hardAlpha" operator="out"/>
<feColorMatrix type="matrix" values="0 0 0 0 0 0 0 0 0 0 0 0 0 0 0 0 0 0 0.25 0"/>
<feBlend mode="normal" in2="BackgroundImageFix" result="effect1_dropShadow_1014_1571"/>
<feBlend mode="normal" in="SourceGraphic" in2="effect1_dropShadow_1014_1571" result="shape"/>
</filter>
</defs>
</svg>
