<svg width="51" height="52" viewBox="0 0 51 52" fill="none" xmlns="http://www.w3.org/2000/svg">
<g filter="url(#filter0_d_486_1709)">
<path d="M27.1288 15.1626H9.21316C8.31364 15.1626 7.58447 15.8918 7.58447 16.7913V34.707C7.58447 35.6065 8.31364 36.3357 9.21316 36.3356H27.1288C28.0283 36.3356 28.7575 35.6064 28.7575 34.707V16.7913C28.7575 15.8919 28.0283 15.1627 27.1288 15.1626ZM25.5001 33.0783H10.8419V18.42H25.5001V33.0783ZM43.4157 29.8209V33.0783C43.4157 34.8773 41.9573 36.3356 40.1583 36.3356H35.2723C34.0185 36.3345 33.2362 34.9765 33.8641 33.8913C34.1549 33.3886 34.6915 33.0788 35.2723 33.0783H40.1583V29.8209C40.1595 28.5671 41.5175 27.7848 42.6027 28.4127C43.1054 28.7035 43.4152 29.2401 43.4157 29.8209ZM43.4157 15.1626V21.6774C43.4146 22.9312 42.0566 23.7135 40.9714 23.0856C40.4687 22.7948 40.1589 22.2582 40.1583 21.6774V15.1626C40.1595 13.9089 41.5175 13.1265 42.6027 13.7544C43.1054 14.0453 43.4152 14.5818 43.4157 15.1626ZM43.4157 3.76178V7.01916C43.4146 8.27294 42.0566 9.05526 40.9714 8.42737C40.4687 8.1365 40.1589 7.59995 40.1583 7.01916V3.76178H36.901C35.6472 3.7606 34.8649 2.40263 35.4927 1.31742C35.7836 0.814719 36.3202 0.504937 36.901 0.504395H40.1583C41.9573 0.504395 43.4157 1.96278 43.4157 3.76178ZM30.3862 2.13308C30.3862 3.03256 29.657 3.76174 28.7575 3.76178H22.2427C20.9889 3.76061 20.2066 2.40263 20.8345 1.31742C21.1254 0.814719 21.6619 0.504937 22.2427 0.504395H28.7575C29.657 0.504437 30.3862 1.23362 30.3862 2.13308ZM7.58447 8.64786V3.76178C7.58447 1.96278 9.04286 0.504395 10.8419 0.504395H14.0992C15.353 0.505566 16.1353 1.86355 15.5075 2.94876C15.2166 3.45146 14.68 3.76124 14.0992 3.76178H10.8419V8.64786C10.8407 9.90163 9.48271 10.684 8.3975 10.0561C7.8948 9.7652 7.58502 9.22865 7.58447 8.64786Z" fill="#fff"/>
</g>
<defs>
<filter id="filter0_d_486_1709" x="0.484473" y="0.504395" width="50.0313" height="50.9313" filterUnits="userSpaceOnUse" color-interpolation-filters="sRGB">
<feFlood flood-opacity="0" result="BackgroundImageFix"/>
<feColorMatrix in="SourceAlpha" type="matrix" values="0 0 0 0 0 0 0 0 0 0 0 0 0 0 0 0 0 0 127 0" result="hardAlpha"/>
<feOffset dy="8"/>
<feGaussianBlur stdDeviation="3.55"/>
<feComposite in2="hardAlpha" operator="out"/>
<feColorMatrix type="matrix" values="0 0 0 0 0 0 0 0 0 0 0 0 0 0 0 0 0 0 0.25 0"/>
<feBlend mode="normal" in2="BackgroundImageFix" result="effect1_dropShadow_486_1709"/>
<feBlend mode="normal" in="SourceGraphic" in2="effect1_dropShadow_486_1709" result="shape"/>
</filter>
</defs>
</svg>
