<svg width="64" height="64" viewBox="0 0 64 64" fill="none" xmlns="http://www.w3.org/2000/svg">
<rect width="64" height="64" rx="32" fill="#EA5455"/>
<path d="M42.0612 39.936C42.343 40.2178 42.5013 40.6 42.5013 40.9985C42.5013 41.3971 42.343 41.7792 42.0612 42.061C41.7794 42.3428 41.3972 42.5011 40.9987 42.5011C40.6002 42.5011 40.218 42.3428 39.9362 42.061L31.9999 34.1223L24.0612 42.0585C23.7794 42.3403 23.3972 42.4986 22.9987 42.4986C22.6002 42.4986 22.218 42.3403 21.9362 42.0585C21.6544 41.7767 21.4961 41.3946 21.4961 40.996C21.4961 40.5975 21.6544 40.2153 21.9362 39.9335L29.8749 31.9973L21.9387 24.0585C21.6569 23.7767 21.4986 23.3946 21.4986 22.996C21.4986 22.5975 21.6569 22.2153 21.9387 21.9335C22.2205 21.6517 22.6027 21.4934 23.0012 21.4934C23.3997 21.4934 23.7819 21.6517 24.0637 21.9335L31.9999 29.8723L39.9387 21.9323C40.2205 21.6505 40.6027 21.4922 41.0012 21.4922C41.3997 21.4922 41.7819 21.6505 42.0637 21.9323C42.3455 22.2141 42.5038 22.5963 42.5038 22.9948C42.5038 23.3933 42.3455 23.7755 42.0637 24.0573L34.1249 31.9973L42.0612 39.936Z" fill="white"/>
</svg>
