<svg width="56" height="54" viewBox="0 0 56 54" fill="none" xmlns="http://www.w3.org/2000/svg">
<g filter="url(#filter0_d_838_60)">
<path d="M36.7348 17.5764C37.1008 17.3636 37.2838 17.0681 37.2838 16.6896C37.2838 16.3112 37.1008 16.0124 36.7348 15.7935L26.9518 9.88175C26.5857 9.63149 26.2031 9.60897 25.8038 9.81419C25.4045 10.019 25.2048 10.3387 25.2048 10.7732V22.5966C25.2048 23.0311 25.4045 23.3508 25.8038 23.5557C26.2031 23.7609 26.5857 23.7383 26.9518 23.4881L36.7348 17.5764ZM17.019 32.6372C16.2204 32.6372 15.5216 32.3557 14.9227 31.7926C14.3237 31.2296 14.0243 30.5728 14.0243 29.8221V3.54777C14.0243 2.79708 14.3237 2.14022 14.9227 1.5772C15.5216 1.01418 16.2204 0.732666 17.019 0.732666H44.9704C45.769 0.732666 46.4678 1.01418 47.0668 1.5772C47.6657 2.14022 47.9652 2.79708 47.9652 3.54777V29.8221C47.9652 30.5728 47.6657 31.2296 47.0668 31.7926C46.4678 32.3557 45.769 32.6372 44.9704 32.6372H17.019ZM17.019 29.8221H44.9704V3.54777H17.019V29.8221ZM11.0295 38.2674C10.2308 38.2674 9.53206 37.9859 8.93311 37.4229C8.33415 36.8598 8.03467 36.203 8.03467 35.4523V7.77043C8.03467 7.37162 8.17909 7.03728 8.46791 6.76731C8.75641 6.49772 9.11412 6.36287 9.54105 6.36287C9.96764 6.36287 10.3224 6.49772 10.6052 6.76731C10.888 7.03728 11.0295 7.37162 11.0295 7.77043V35.4523H40.4782C40.9025 35.4523 41.2582 35.5881 41.5454 35.8595C41.8322 36.1307 41.9756 36.4669 41.9756 36.8683C41.9756 37.2692 41.8322 37.6027 41.5454 37.8686C41.2582 38.1344 40.9025 38.2674 40.4782 38.2674H11.0295Z" fill="#2C2C2C"/>
</g>
<defs>
<filter id="filter0_d_838_60" x="0.934668" y="0.732666" width="54.1307" height="52.6347" filterUnits="userSpaceOnUse" color-interpolation-filters="sRGB">
<feFlood flood-opacity="0" result="BackgroundImageFix"/>
<feColorMatrix in="SourceAlpha" type="matrix" values="0 0 0 0 0 0 0 0 0 0 0 0 0 0 0 0 0 0 127 0" result="hardAlpha"/>
<feOffset dy="8"/>
<feGaussianBlur stdDeviation="3.55"/>
<feComposite in2="hardAlpha" operator="out"/>
<feColorMatrix type="matrix" values="0 0 0 0 0 0 0 0 0 0 0 0 0 0 0 0 0 0 0.25 0"/>
<feBlend mode="normal" in2="BackgroundImageFix" result="effect1_dropShadow_838_60"/>
<feBlend mode="normal" in="SourceGraphic" in2="effect1_dropShadow_838_60" result="shape"/>
</filter>
</defs>
</svg>
