<svg width="36" height="34" viewBox="0 0 36 34" fill="none" xmlns="http://www.w3.org/2000/svg">
<path d="M0 23.1818V10.8182C0 10.4083 0.172402 10.0152 0.47928 9.72538C0.786157 9.43555 1.20237 9.27273 1.63636 9.27273C2.07035 9.27273 2.48657 9.43555 2.79345 9.72538C3.10033 10.0152 3.27273 10.4083 3.27273 10.8182V23.1818C3.27273 23.5917 3.10033 23.9848 2.79345 24.2746C2.48657 24.5644 2.07035 24.7273 1.63636 24.7273C1.20237 24.7273 0.786157 24.5644 0.47928 24.2746C0.172402 23.9848 0 23.5917 0 23.1818ZM11.4545 29.3636V4.63636C11.4545 4.22648 11.2821 3.83339 10.9753 3.54356C10.6684 3.25373 10.2522 3.09091 9.81818 3.09091C9.38419 3.09091 8.96798 3.25373 8.6611 3.54356C8.35422 3.83339 8.18182 4.22648 8.18182 4.63636V29.3636C8.18182 29.7735 8.35422 30.1666 8.6611 30.4564C8.96798 30.7463 9.38419 30.9091 9.81818 30.9091C10.2522 30.9091 10.6684 30.7463 10.9753 30.4564C11.2821 30.1666 11.4545 29.7735 11.4545 29.3636ZM19.6364 32.4545V1.54545C19.6364 1.13557 19.464 0.742482 19.1571 0.452653C18.8502 0.162824 18.434 0 18 0C17.566 0 17.1498 0.162824 16.8429 0.452653C16.536 0.742482 16.3636 1.13557 16.3636 1.54545V32.4545C16.3636 32.8644 16.536 33.2575 16.8429 33.5473C17.1498 33.8372 17.566 34 18 34C18.434 34 18.8502 33.8372 19.1571 33.5473C19.464 33.2575 19.6364 32.8644 19.6364 32.4545ZM27.8182 29.3636V4.63636C27.8182 4.22648 27.6458 3.83339 27.3389 3.54356C27.032 3.25373 26.6158 3.09091 26.1818 3.09091C25.7478 3.09091 25.3316 3.25373 25.0247 3.54356C24.7179 3.83339 24.5455 4.22648 24.5455 4.63636V29.3636C24.5455 29.7735 24.7179 30.1666 25.0247 30.4564C25.3316 30.7463 25.7478 30.9091 26.1818 30.9091C26.6158 30.9091 27.032 30.7463 27.3389 30.4564C27.6458 30.1666 27.8182 29.7735 27.8182 29.3636ZM34.3636 9.27273C33.9296 9.27273 33.5134 9.43555 33.2066 9.72538C32.8997 10.0152 32.7273 10.4083 32.7273 10.8182V23.1818C32.7273 23.5917 32.8997 23.9848 33.2066 24.2746C33.5134 24.5644 33.9296 24.7273 34.3636 24.7273C34.7976 24.7273 35.2138 24.5644 35.5207 24.2746C35.8276 23.9848 36 23.5917 36 23.1818V10.8182C36 10.4083 35.8276 10.0152 35.5207 9.72538C35.2138 9.43555 34.7976 9.27273 34.3636 9.27273Z" fill="black"/>
</svg>
