<svg width="16" height="17" viewBox="0 0 16 17" fill="none" xmlns="http://www.w3.org/2000/svg">
<path d="M15.4066 2.47065C15.3962 2.32528 15.3365 2.20067 15.2275 2.09683C15.1184 1.99298 14.986 1.94106 14.8303 1.94106H13.3661V1.4582C13.3661 1.32321 13.3116 1.19341 13.2026 1.0688C13.0935 0.94419 12.9559 0.881885 12.7898 0.881885H11.0141C10.8791 0.881885 10.7493 0.936401 10.6247 1.04543C10.5001 1.15447 10.4378 1.29206 10.4378 1.4582V1.94106H5.43784V1.4582C5.43784 1.32321 5.38333 1.19341 5.27429 1.0688C5.16526 0.94419 5.02767 0.881885 4.86152 0.881885H3.11699C2.982 0.881885 2.8522 0.936401 2.72759 1.04543C2.60298 1.15447 2.54067 1.29206 2.54067 1.4582V1.94106H1.12324C0.988249 1.94106 0.861043 1.99298 0.741626 2.09683C0.622209 2.20067 0.5625 2.33566 0.5625 2.50181V16.2088C0.5625 16.3438 0.617017 16.4736 0.72605 16.5982C0.835083 16.7229 0.972673 16.7852 1.13882 16.7852H14.8303C14.9653 16.7852 15.0951 16.7306 15.2197 16.6216C15.3443 16.5126 15.4066 16.375 15.4066 16.2088V2.47065ZM3.72446 2.96909V2.01895H4.39424V2.96909H3.72446ZM11.5593 2.96909V2.01895H12.2291V2.96909H11.5593ZM11.092 4.09058H12.8521C12.9871 4.09058 13.1169 4.03606 13.2415 3.92703C13.3661 3.81799 13.4284 3.6804 13.4284 3.51426V3.0314H14.3474V4.7292H1.69956V3.04697H2.63413V3.51426C2.62375 3.58695 2.63413 3.65704 2.66528 3.72454C2.69644 3.79203 2.73278 3.85693 2.77432 3.91924C2.83662 3.97116 2.90152 4.0127 2.96902 4.04385C3.03652 4.075 3.1118 4.09058 3.19487 4.09058H4.97056C5.11593 4.09058 5.24833 4.03606 5.36775 3.92703C5.48717 3.81799 5.54688 3.6804 5.54688 3.51426V3.0314H10.5312V3.51426C10.5209 3.65964 10.5676 3.79203 10.6714 3.91145C10.7753 4.03087 10.9155 4.09058 11.092 4.09058ZM1.69956 15.6637V5.83511H14.3163V15.6637H1.69956ZM2.8522 14.7291H13.1169V6.7541H2.8522V14.7291ZM11.9954 12.4238V13.6232H10.8116V12.4394H11.9954V12.4238ZM11.9954 10.1497V11.3491H10.8116V10.1497H11.9954ZM11.9954 7.86001V9.0438H10.8116V7.86001H11.9954ZM9.72129 12.4238V13.6232H8.55308V12.4394H9.72129V12.4238ZM9.72129 10.1497V11.3491H8.55308V10.1497H9.72129ZM9.72129 7.86001V9.0438H8.55308V7.86001H9.72129ZM7.41602 12.4238V13.6232H6.23223V12.4394H7.41602V12.4238ZM7.41602 10.1497V11.3491H6.23223V10.1497H7.41602ZM7.41602 7.86001V9.0438H6.23223V7.86001H7.41602ZM5.14189 12.4238V13.6232H3.95811V12.4394H5.14189V12.4238ZM5.15747 10.1497V11.3491H3.97368V10.1497H5.15747ZM5.15747 7.86001V9.0438H3.97368V7.86001H5.15747Z" fill="#A0AEC0"/>
</svg>
