<svg width="38" height="36" viewBox="0 0 38 36" fill="none" xmlns="http://www.w3.org/2000/svg">
<path d="M10.75 11.125H27.25M10.75 16.625H19M1.125 19.3921C1.125 22.3274 3.18459 24.8824 6.08868 25.3094C8.1576 25.6136 10.2499 25.8458 12.3631 26.0034C13.0051 26.0513 13.592 26.388 13.9491 26.9236L19 34.5L24.0508 26.9238C24.408 26.3881 24.9949 26.0514 25.6369 26.0035C27.75 25.846 29.8423 25.6138 31.9112 25.3096C34.8154 24.8827 36.875 22.3277 36.875 19.3923V8.35769C36.875 5.42234 34.8154 2.86735 31.9112 2.44038C27.6974 1.82086 23.3864 1.5 19.0005 1.5C14.6142 1.5 10.3029 1.82091 6.08869 2.44055C3.1846 2.86755 1.125 5.42253 1.125 8.35784V19.3921Z" stroke="#0F172A" stroke-width="2" stroke-linecap="round" stroke-linejoin="round"/>
</svg>
