<svg width="76" height="76" viewBox="0 0 76 76" fill="none" xmlns="http://www.w3.org/2000/svg">
<path fill-rule="evenodd" clip-rule="evenodd" d="M7.125 38C7.125 20.9482 20.9482 7.125 38 7.125C55.0518 7.125 68.875 20.9482 68.875 38C68.875 55.0518 55.0518 68.875 38 68.875C20.9482 68.875 7.125 55.0518 7.125 38ZM49.4326 32.2554C50.195 31.1881 49.9478 29.7048 48.8804 28.9424C47.8131 28.18 46.3298 28.4272 45.5674 29.4946L35.3219 43.8382L30.1794 38.6956C29.2519 37.7681 27.7481 37.7681 26.8206 38.6956C25.8931 39.6231 25.8931 41.1269 26.8206 42.0544L33.9456 49.1794C34.4393 49.673 35.1251 49.9245 35.8209 49.8669C36.5166 49.8093 37.1518 49.4485 37.5576 48.8804L49.4326 32.2554Z" fill="#00B350"/>
</svg>
