<svg width="52" height="53" viewBox="0 0 52 53" fill="none" xmlns="http://www.w3.org/2000/svg">
<g filter="url(#filter0_d_486_1730)">
<path d="M29.96 17.6431V28.5002" stroke="#4159e8" stroke-width="2" stroke-linecap="round" stroke-linejoin="round"/>
<path d="M24.5288 23.0715H35.386" stroke="#4159e8" stroke-width="2" stroke-linecap="round" stroke-linejoin="round"/>
<path d="M27.9543 2.35064C27.1635 1.74567 26.2002 1.40903 25.2048 1.38978C24.1509 1.36737 23.0967 1.35651 22.0426 1.35721C18.666 1.35721 15.9409 1.45764 13.1235 1.65307C11.9654 1.73113 10.8752 2.22771 10.0561 3.05023C9.23711 3.87275 8.74517 4.96506 8.67204 6.1235C8.46111 9.50681 8.3561 12.8959 8.35719 16.2858C8.35719 19.7682 8.46576 23.1665 8.67204 26.4481C8.7969 28.4566 10.154 30.1205 11.9998 30.7068" stroke="#4159e8" stroke-width="2" stroke-linecap="round" stroke-linejoin="round"/>
<path d="M43.3309 31.8738C43.5976 27.5926 43.6945 23.3024 43.6213 19.0135C43.6063 17.0722 42.9614 15.1881 41.7838 13.6447C40.0923 11.4287 38.104 9.45589 35.8748 7.78182C35.0828 7.17479 34.1174 6.83713 33.1198 6.81825C32.0668 6.79585 31.0136 6.78499 29.9603 6.78567C26.5838 6.78567 23.8586 6.8861 21.0412 7.08153C19.8831 7.1596 18.7929 7.65618 17.9739 8.4787C17.1548 9.30121 16.6629 10.3935 16.5898 11.552C16.3788 14.9353 16.2738 18.3244 16.2749 21.7142C16.2749 25.1967 16.3835 28.595 16.5898 31.8738C16.6623 33.0327 17.1539 34.1257 17.973 34.9488C18.7921 35.7719 19.8826 36.2688 21.0412 36.347C24.0098 36.5518 26.9847 36.6505 29.9603 36.6428C32.9351 36.6513 35.9091 36.5527 38.8768 36.347C40.0353 36.2688 41.1259 35.7719 41.945 34.9488C42.764 34.1257 43.2557 33.0327 43.3282 31.8738H43.3309Z" stroke="#4159e8" stroke-width="2" stroke-linecap="round" stroke-linejoin="round"/>
</g>
<defs>
<filter id="filter0_d_486_1730" x="0.257178" y="0.357178" width="51.4878" height="52.3861" filterUnits="userSpaceOnUse" color-interpolation-filters="sRGB">
<feFlood flood-opacity="0" result="BackgroundImageFix"/>
<feColorMatrix in="SourceAlpha" type="matrix" values="0 0 0 0 0 0 0 0 0 0 0 0 0 0 0 0 0 0 127 0" result="hardAlpha"/>
<feOffset dy="8"/>
<feGaussianBlur stdDeviation="3.55"/>
<feComposite in2="hardAlpha" operator="out"/>
<feColorMatrix type="matrix" values="0 0 0 0 0 0 0 0 0 0 0 0 0 0 0 0 0 0 0.25 0"/>
<feBlend mode="normal" in2="BackgroundImageFix" result="effect1_dropShadow_486_1730"/>
<feBlend mode="normal" in="SourceGraphic" in2="effect1_dropShadow_486_1730" result="shape"/>
</filter>
</defs>
</svg>
