<svg width="52" height="50" viewBox="0 0 52 50" fill="none" xmlns="http://www.w3.org/2000/svg">
<g filter="url(#filter0_d_486_1726)">
<path d="M39.5039 29.1429C39.5039 30.4311 39.0298 31.6665 38.1858 32.5774C37.3417 33.4883 36.197 34 35.0034 34H12.5006C11.3069 34 10.1622 33.4883 9.31818 32.5774C8.47417 31.6665 8 30.4311 8 29.1429V9.71429C8 8.42693 8.47355 7.19223 9.31659 6.28148C10.1596 5.37073 11.3032 4.85843 12.4961 4.85714C12.4961 3.56895 12.9702 2.33352 13.8142 1.42262C14.6583 0.511733 15.803 0 16.9966 0H39.4994C40.6931 0 41.8378 0.511733 42.6818 1.42262C43.5258 2.33352 44 3.56895 44 4.85714V24.2857C44 25.5731 43.5265 26.8078 42.6834 27.7185C41.8404 28.6293 40.6968 29.1416 39.5039 29.1429ZM39.4994 2.42857H16.9966C16.3998 2.42857 15.8274 2.68444 15.4054 3.13988C14.9834 3.59533 14.7463 4.21305 14.7463 4.85714H35.0034C36.197 4.85714 37.3417 5.36888 38.1858 6.27977C39.0298 7.19066 39.5039 8.42609 39.5039 9.71429V26.7143C40.1 26.713 40.6712 26.4566 41.0922 26.0013C41.5133 25.546 41.7497 24.929 41.7497 24.2857V4.85714C41.7497 4.21305 41.5126 3.59533 41.0906 3.13988C40.6686 2.68444 40.0962 2.42857 39.4994 2.42857ZM12.5006 7.28571C11.9038 7.28571 11.3314 7.54158 10.9094 7.99703C10.4874 8.45247 10.2503 9.07019 10.2503 9.71429V29.1429L16.2045 23.426C16.3884 23.2282 16.6301 23.1052 16.8885 23.0777C17.1469 23.0503 17.4061 23.1201 17.6222 23.2754L23.608 27.5813L31.9565 18.5713C32.1234 18.391 32.3385 18.272 32.5716 18.231C32.8046 18.19 33.0437 18.2292 33.2549 18.343L37.2537 23.0714V9.71429C37.2537 9.07019 37.0166 8.45247 36.5946 7.99703C36.1726 7.54158 35.6002 7.28571 35.0034 7.28571H12.5006Z" fill="#2C2C2C"/>
</g>
<defs>
<filter id="filter0_d_486_1726" x="0.9" y="0" width="50.2" height="49.1" filterUnits="userSpaceOnUse" color-interpolation-filters="sRGB">
<feFlood flood-opacity="0" result="BackgroundImageFix"/>
<feColorMatrix in="SourceAlpha" type="matrix" values="0 0 0 0 0 0 0 0 0 0 0 0 0 0 0 0 0 0 127 0" result="hardAlpha"/>
<feOffset dy="8"/>
<feGaussianBlur stdDeviation="3.55"/>
<feComposite in2="hardAlpha" operator="out"/>
<feColorMatrix type="matrix" values="0 0 0 0 0 0 0 0 0 0 0 0 0 0 0 0 0 0 0.25 0"/>
<feBlend mode="normal" in2="BackgroundImageFix" result="effect1_dropShadow_486_1726"/>
<feBlend mode="normal" in="SourceGraphic" in2="effect1_dropShadow_486_1726" result="shape"/>
</filter>
</defs>
</svg>
